<?xml version="1.0" standalone="no"?>
<!DOCTYPE svg PUBLIC "-//W3C//DTD SVG 1.1//EN" "http://www.w3.org/Graphics/SVG/1.1/DTD/svg11.dtd" >
<svg xmlns="http://www.w3.org/2000/svg">
<metadata>Generated by IcoMoon</metadata>
<defs>
<font id="icomoon" horiz-adv-x="1024">
<font-face units-per-em="1024" ascent="960" descent="-64" />
<missing-glyph horiz-adv-x="1024" />
<glyph unicode="&#x20;" horiz-adv-x="512" d="" />
<glyph unicode="&#xe900;" glyph-name="allergie" d="M514.336 625.248c-57.184 0-103.648-46.016-103.648-102.624 0-20.768 6.368-40.096 17.152-56.256-78.912-61.568-150.112-152.8-199.712-287.488-24.672-66.976-26.048-126.336 9.216-130.88 18.24-0.544 45.28 17.376 54.752 61.408 12.288 57.472 26.4 121.152 44.32 157.376 23.392 47.36 68.8 113.696 116.832 173.408 17.216-12.512 38.208-20.128 61.12-20.128 57.184 0 103.68 46.016 103.68 102.528 0 56.576-46.528 102.624-103.68 102.624l-0.032 0.032zM514.336 456.544c-14.112 0-27.104 4.384-37.888 11.776-7.584 5.184-13.888 11.904-18.752 19.68-6.336 10.080-10.176 21.888-10.176 34.656 0 36.48 29.952 66.176 66.816 66.176s66.848-29.696 66.848-66.176c0-36.48-29.984-66.112-66.848-66.112zM501.984 666.336c-26.784 0-48.48 21.472-48.48 47.968 0 26.464 21.696 47.904 48.48 47.904s48.48-21.472 48.48-47.904c0-26.496-21.696-47.968-48.48-47.968zM599.584 674.912c0 26.464 21.696 47.904 48.48 47.904 26.752 0 48.448-21.472 48.448-47.904 0-26.496-21.696-47.968-48.448-47.968-26.784 0-48.48 21.472-48.48 47.968zM712.64 584.768c26.784 0 48.48-21.472 48.48-47.904 0-26.496-21.696-47.968-48.48-47.968s-48.48 21.472-48.48 47.968c0 26.464 21.696 47.904 48.48 47.904zM674.176 438.304c26.784 0 48.48-21.472 48.48-47.968 0-26.464-21.696-47.968-48.48-47.968s-48.448 21.504-48.448 47.968c0 26.496 21.664 47.968 48.448 47.968zM533.76 386.976c26.784 0 48.48-21.472 48.48-47.968 0-26.464-21.696-47.904-48.48-47.904-26.752 0-48.448 21.472-48.448 47.904 0 26.496 21.696 47.968 48.448 47.968zM646.272 300.544c18.816 0 34.080-15.136 34.080-33.728s-15.264-33.696-34.080-33.696c-18.848 0-34.112 15.072-34.112 33.696s15.264 33.728 34.112 33.728zM423.584 281.248c18.816 0 34.080-15.072 34.080-33.696s-15.264-33.728-34.080-33.728c-18.816 0-34.112 15.136-34.112 33.728s15.296 33.696 34.112 33.696zM805.568 470.624c18.112-5.408 28.48-24.192 23.104-42.048-5.344-17.856-24.384-27.936-42.464-22.592-18.112 5.344-28.48 24.16-23.104 42.016 5.344 17.856 24.384 28 42.464 22.624zM728.288 662.656c5.376 17.856 24.384 28 42.496 22.624s28.448-24.192 23.104-42.048c-5.376-17.824-24.384-27.936-42.496-22.592-18.080 5.344-28.448 24.16-23.104 42.016zM589.92 755.968c-18.112 5.344-28.48 24.192-23.104 42.048 5.344 17.824 24.384 27.936 42.464 22.592 18.112-5.344 28.48-24.16 23.104-42.016-5.344-17.856-24.384-28-42.464-22.624zM379.808 741.536c-18.112 5.344-28.448 24.192-23.104 42.016 5.344 17.856 24.384 28 42.464 22.624 18.112-5.344 28.48-24.192 23.104-42.048-5.344-17.824-24.384-27.936-42.464-22.592zM269.344 701.376c-13.856 4.096-21.888 18.56-17.952 32.288 3.904 13.728 18.336 21.536 32.16 17.408 13.856-4.096 21.888-18.56 17.952-32.288-3.904-13.728-18.304-21.536-32.16-17.408zM227.104 481.472c-3.936-13.696-18.336-21.504-32.16-17.408-13.856 4.128-21.888 18.592-17.984 32.288 3.936 13.728 18.336 21.536 32.192 17.44 13.824-4.128 21.888-18.592 17.952-32.32zM481.184 797.184c-13.856 4.128-21.888 18.592-17.984 32.288 3.936 13.728 18.336 21.536 32.192 17.44 13.856-4.128 21.888-18.592 17.952-32.32-3.904-13.696-18.336-21.504-32.16-17.408zM705.536 737.344c-13.856 4.128-21.888 18.592-17.952 32.288 3.904 13.728 18.304 21.536 32.16 17.44 13.856-4.128 21.888-18.592 17.952-32.32-3.904-13.696-18.304-21.504-32.16-17.408zM829.088 583.68c13.824-4.096 21.856-18.56 17.952-32.288-3.936-13.728-18.336-21.536-32.192-17.408-13.824 4.128-21.856 18.56-17.952 32.288 3.936 13.728 18.336 21.536 32.192 17.408zM768.224 351.328c13.824-4.128 21.888-18.56 17.952-32.288s-18.336-21.536-32.192-17.408c-13.824 4.096-21.856 18.56-17.952 32.288 3.936 13.728 18.336 21.536 32.192 17.408zM540.864 246.464c13.856-4.128 21.888-18.592 17.984-32.288-3.936-13.728-18.336-21.536-32.192-17.44-13.856 4.128-21.888 18.592-17.952 32.32 3.936 13.696 18.336 21.504 32.16 17.408zM226.56 574.688c-18.112 5.408-28.448 24.192-23.104 42.048s24.384 27.936 42.464 22.592c18.112-5.344 28.48-24.16 23.104-42.016-5.344-17.856-24.384-28-42.464-22.624zM237.696 400.096c5.344 17.824 24.352 27.936 42.464 22.592s28.448-24.16 23.104-42.016c-5.376-17.856-24.384-28-42.496-22.624-18.080 5.344-28.448 24.192-23.072 42.048zM256.64 511.744c0 26.496 21.696 47.968 48.48 47.968 26.752 0 48.448-21.472 48.448-47.968 0-26.464-21.696-47.904-48.448-47.904-26.784 0-48.48 21.472-48.48 47.904zM353.536 604.992c-26.752 0-48.448 21.472-48.448 47.968 0 26.464 21.696 47.904 48.448 47.904 26.784 0 48.48-21.472 48.48-47.904 0-26.496-21.696-47.968-48.48-47.968z" />
<glyph unicode="&#xe901;" glyph-name="arrow-down" d="M512 130.624c-2.848 0-5.696-0.544-8.544 0-5.696 1.152-11.168 3.328-16.032 6.624h-0.096c-4.544 3.008-8.032 6.944-11.072 11.104-0.352 0.48-0.928 0.704-1.248 1.248l-355.552 533.344c-1.024 1.504-1.472 3.168-2.208 4.768-0.8 1.504-1.568 2.944-2.144 4.544-1.856 5.024-3.104 10.144-3.104 15.296v0.128c0.032 5.28 1.28 10.432 3.104 15.392 0.352 1.024 0.672 2.016 1.12 2.944 2.048 4.48 4.768 8.608 8.256 12.256 0.672 0.704 1.472 1.248 2.208 1.92 1.632 1.504 3.168 3.168 5.056 4.416 1.152 0.8 2.496 0.896 3.68 1.504 2.656 1.472 5.344 2.528 8.256 3.424 2.976 0.896 5.792 1.504 8.8 1.792 1.344 0.096 2.528 0.768 3.904 0.768h711.104c1.376 0 2.528-0.672 3.904-0.768 3.008-0.256 5.824-0.896 8.768-1.792s5.632-1.952 8.256-3.424c1.216-0.608 2.592-0.704 3.744-1.504 1.216-0.8 1.856-2.048 2.976-2.976 2.368-1.92 4.384-4 6.368-6.4 1.824-2.208 3.392-4.448 4.704-6.944 1.28-2.4 2.272-4.896 3.072-7.552 0.928-2.976 1.568-5.856 1.824-8.992 0.128-1.408 0.832-2.656 0.832-4.128 0-1.376-0.672-2.528-0.8-3.904-0.256-2.976-0.896-5.792-1.728-8.704-0.928-2.976-1.952-5.696-3.424-8.352-0.672-1.152-0.768-2.528-1.504-3.648l-355.392-533.056c-0.032-0.096-0.096-0.128-0.096-0.192l-0.096-0.096c-1.696-2.528-4.096-4.128-6.176-6.176-2.048-2.048-3.648-4.48-6.144-6.176h-0.096c-4.896-3.296-10.368-5.472-16.096-6.624-2.784-0.544-5.632 0-8.48 0l0.096-0.064z" />
<glyph unicode="&#xe902;" glyph-name="arrow-left" d="M330.080 608.896c8.768-8.832 9.248-22.72 1.536-32.128l-1.664-1.824-111.744-110.976h645.76c13.248 0 24-10.752 24-24 0-12.48-9.504-22.72-21.696-23.904l-2.304-0.096h-645.76l111.744-110.976c8.832-8.768 9.408-22.656 1.76-32.128l-1.632-1.824c-8.768-8.832-22.656-9.408-32.128-1.76l-1.824 1.632-154.048 153.056-1.312 1.632-1.312 1.92-0.8 1.408c-1.696 3.296-2.688 7.040-2.688 11.040s0.96 7.744 2.688 11.040l0.8 1.408 0.896 1.376 1.472 1.888 1.248 1.344 153.056 152c9.408 9.344 24.608 9.28 33.952-0.128z" />
<glyph unicode="&#xe903;" glyph-name="arrow-right" d="M693.92 608.896c-8.768-8.832-9.248-22.72-1.536-32.128l1.664-1.824 111.744-110.976h-645.76c-13.248 0-24-10.752-24-24 0-12.48 9.504-22.72 21.696-23.904l2.304-0.096h645.76l-111.744-110.976c-8.832-8.768-9.408-22.656-1.76-32.128l1.632-1.824c8.768-8.832 22.656-9.408 32.128-1.76l1.824 1.632 154.048 153.056 1.312 1.632 1.312 1.92 0.8 1.408c1.696 3.296 2.688 7.040 2.688 11.040s-0.96 7.744-2.688 11.040l-0.8 1.408-0.896 1.376-1.472 1.888-1.248 1.344-153.056 152c-9.408 9.344-24.608 9.28-33.952-0.128z" />
<glyph unicode="&#xe904;" glyph-name="arrow-up" d="M512 751.776c2.848 0 5.696 0.544 8.544 0 5.696-1.152 11.168-3.328 16.032-6.624h0.096c4.544-3.008 8.032-6.944 11.072-11.104 0.352-0.48 0.928-0.704 1.248-1.248l355.552-533.344c1.024-1.504 1.472-3.168 2.208-4.768 0.8-1.504 1.568-2.944 2.144-4.544 1.856-5.024 3.104-10.144 3.104-15.296v-0.128c-0.032-5.28-1.28-10.432-3.104-15.392-0.352-1.024-0.672-2.016-1.12-2.944-2.048-4.48-4.768-8.608-8.256-12.256-0.672-0.704-1.472-1.248-2.208-1.92-1.632-1.504-3.168-3.168-5.056-4.384-1.152-0.8-2.496-0.896-3.68-1.504-2.656-1.472-5.344-2.528-8.256-3.424-2.976-0.896-5.792-1.504-8.8-1.792-1.344-0.096-2.528-0.768-3.904-0.768h-711.104c-1.376 0-2.528 0.672-3.904 0.768-3.008 0.256-5.824 0.896-8.768 1.792s-5.632 1.952-8.256 3.424c-1.184 0.608-2.592 0.704-3.744 1.504-1.184 0.8-1.856 2.048-2.976 2.976-2.368 1.92-4.416 4-6.368 6.4-1.824 2.208-3.392 4.448-4.704 6.944-1.28 2.4-2.272 4.896-3.072 7.552-0.928 2.976-1.568 5.856-1.824 8.992-0.128 1.408-0.832 2.656-0.832 4.128 0 1.376 0.672 2.528 0.8 3.904 0.256 2.976 0.896 5.792 1.728 8.704 0.928 2.976 1.952 5.696 3.424 8.352 0.672 1.152 0.768 2.528 1.504 3.648l355.392 533.056c0.032 0.096 0.096 0.128 0.096 0.192l0.096 0.096c1.696 2.528 4.096 4.128 6.176 6.176 2.048 2.048 3.648 4.48 6.144 6.176h0.096c4.896 3.296 10.368 5.472 16.096 6.624 2.816 0.544 5.632 0 8.48 0l-0.096 0.032z" />
<glyph unicode="&#xe905;" glyph-name="blank-appointment" d="M956.48 612c6.624-11.488 2.688-26.144-8.8-32.8l-51.712-29.824v-453.376c0-8.192-6.176-14.976-14.144-15.904l-1.856-0.096h-720c-8.192 0-14.976 6.176-15.904 14.144l-0.096 1.856v19.2l-27.68-16c-11.488-6.624-26.144-2.688-32.8 8.8s-2.688 26.144 8.8 32.8l831.392 480c11.488 6.624 26.144 2.688 32.8-8.8zM864 530.912l-688-397.216v-21.664h688v418.88zM374.752 816c8.192 0 14.976-6.176 15.904-14.144l0.096-1.856v-48h245.888v48c0 8.192 6.176 14.976 14.144 15.904l1.856 0.096h101.056c8.192 0 14.976-6.176 15.904-14.144l0.096-1.856v-46.848h110.304c8.192 0 14.976-6.176 15.904-14.144l0.096-1.856v-12.896l-32-18.464v15.392h-94.304v-46.88c0-8.192-6.176-14.976-14.144-15.904l-1.856-0.096h-101.056c-8.192 0-14.976 6.176-15.904 14.144l-0.096 1.856v45.728h-245.888v-45.728c0-8.192-6.176-14.976-14.144-15.904l-1.856-0.096h-101.056c-8.192 0-14.976 6.176-15.904 14.144l-0.096 1.856v46.88h-81.696v-129.152h490.976l-55.424-32h-435.552v-251.456l-32-18.496v447.072c0 8.192 6.176 14.976 14.144 15.904l1.856 0.096h97.664v46.848c0 8.192 6.176 14.976 14.144 15.904l1.856 0.096h101.088zM358.72 784h-69.056v-93.696h69.056v93.696zM737.664 784h-69.056v-93.696h69.056v93.696z" />
<glyph unicode="&#xe906;" glyph-name="blank-documents" d="M331.392 254.56v-42.816h303.808v55.616h-220.96c-11.328 0-22.432 8.992-26.24 19.904l-56.608-32.704zM449.92 322.976h268.16v154.816l-268.16-154.816zM773.344 509.696v-214.528c0-14.112-13.632-27.808-27.616-27.808h-55.232v-83.424c0-14.112-13.632-27.808-27.616-27.808h-359.073c-14.016 0-27.616 13.696-27.616 27.808v38.752l-135.488-78.208c-9.152-5.28-20.832-2.144-26.112 7.008s-2.144 20.832 7.008 26.112l761.761 439.808c9.152 5.28 20.832 2.144 26.112-7.008s2.144-20.832-7.008-26.112l-129.12-74.592zM276.159 350.208v306.528c0 14.112 13.632 27.808 27.616 27.808h82.849v55.616c0 14.112 13.632 27.808 27.616 27.808h276.192l82.848-111.264v-19.488l-110.752-63.936h-27.36c-14.016 0-27.616 13.696-27.616 27.808v111.264h-165.728v-266.496l-55.232-31.904v214.944h-55.232v-246.816l-55.201-31.872zM662.848 712.384v-83.456h55.232l-55.232 83.456zM125.855 193.184l747.009 431.296c11.488 6.624 26.144 2.688 32.8-8.8l1.28-2.24c6.624-11.488 2.688-26.144-8.8-32.8l-747.009-431.296c-11.488-6.624-26.144-2.688-32.8 8.8l-1.28 2.24c-6.624 11.488-2.688 26.144 8.8 32.8z" />
<glyph unicode="&#xe907;" glyph-name="blank-exam" d="M956.48 639.488c6.624-11.488 2.688-26.144-8.8-32.8l-174.816-100.928v-377.792c0-8.192-6.176-14.976-14.144-15.904l-1.856-0.096h-500.864c-8.192 0-14.976 6.176-15.904 14.144l-0.096 1.856v70.144l-123.68-71.424c-11.488-6.624-26.144-2.688-32.8 8.8s-2.688 26.144 8.8 32.8l831.392 480c11.488 6.624 26.144 2.688 32.8-8.8h-0.032zM740.832 487.328l-23.648-13.664 0.032-262.176c0-8.192-6.176-14.976-14.144-15.904l-1.856-0.096h-389.568c-8.192 0-14.976 6.176-15.904 14.144l-0.096 1.856v18.784l-23.68-13.664 0.032-72.576h468.896v343.328l-0.064-0.032zM549.792 377.024l-222.144-128.256v-21.248h357.568v134.976h-43.648l-37.312-74.656c-6.24-12.448-23.968-11.392-29.056 0.928l-0.64 1.824-24.768 86.432zM685.184 455.168l-106.784-61.664 15.616-54.592 23.328 46.688c2.4 4.832 7.040 8.064 12.32 8.736l1.984 0.128h53.536v60.704zM506.432 784c32.736 0 60.352-21.984 68.928-52l0.832-3.232 0.096-0.416h41.44c7.584 0 13.92-5.248 15.584-12.32l0.32-1.792 0.096-1.856v-11.808h123.136c8.192 0 14.976-6.176 15.904-14.144l0.096-1.856v-3.872l-32-18.496v6.368h-107.136v-23.648h67.488c2.496 0 4.864-0.576 6.944-1.6l-52.672-30.4h-36.192l-1.6-0.096h-222.624c-0.544 0-1.056 0.032-1.6 0.064l-65.888 0.032-0.032-189.312-31.968-18.464v223.776c0 8.192 6.176 14.976 14.144 15.904l1.856 0.096h67.456v23.648h-107.136v-277.088l-32-18.464v311.552c0 8.192 6.176 14.976 14.144 15.904l1.856 0.096h123.104v11.808c0 8.192 6.176 14.976 14.144 15.904l1.856 0.096h41.44l0.96 3.68c7.968 27.904 32.384 48.864 62.080 51.648l3.456 0.256 3.36 0.064 0.128-0.032zM506.432 752c-20.992 0-38.208-16.384-39.552-37.056l-0.096-2.592-0.096-1.856c-0.864-7.36-6.688-13.184-14.016-14.016l-1.856-0.096h-39.648v-51.456h190.624v51.456h-39.648c-7.584 0-13.92 5.248-15.584 12.32l-0.32 1.792-0.096 1.856c0 21.888-17.76 39.648-39.648 39.648h-0.064z" />
<glyph unicode="&#xe908;" glyph-name="blank-medication" d="M956.48 639.488c6.624-11.488 2.688-26.144-8.8-32.8l-177.504-102.464 44.928-44.928c86.496-86.496 86.496-227.968 0.032-314.432s-227.968-86.496-314.464 0l-129.184 129.184-255.2-147.36c-11.488-6.624-26.144-2.688-32.8 8.8s-2.688 26.144 8.8 32.8l831.392 480c11.488 6.624 26.144 2.688 32.8-8.8zM741.504 487.68l-341.28-197.056 123.104-123.104c73.984-74.016 195.2-74.016 269.184 0s73.984 195.2-0.032 269.184l-50.976 50.976zM523.328 751.136l136-136.032-28.672-16.576-129.984 129.984c-72.736 72.736-191.104 73.952-265.376 3.68l-3.808-3.68c-74.016-74.016-74.016-195.2 0-269.184l57.856-57.856-28.704-16.544-51.776 51.776c-85.184 85.152-86.496 223.616-3.936 310.432l3.936 4.032c86.496 86.464 227.968 86.464 314.432 0l0.032-0.032zM475.104 687.072l3.328-3.232 67.328-67.392 1.344-1.504c4.864-6.272 4.416-15.36-1.344-21.12s-14.848-6.208-21.12-1.312l-1.504 1.344-67.296 67.36-3.008 2.88c-43.552 40.416-111.648 39.456-153.952-2.88-6.24-6.24-16.384-6.24-22.624 0s-6.24 16.384 0 22.624c54.72 54.752 142.784 55.808 198.848 3.232z" />
<glyph unicode="&#xe909;" glyph-name="blank-notification" d="M250.42 514.333v-18.182c0-65.222-31.704-131.475-63.868-187.872l-36.865-62.464c-1.135-2.038-2.392-4.125-3.675-6.256-5.032-8.362-10.459-17.376-10.459-26.614 0-36.157 25.72-49.574 61.1-49.574h404.729l-67.222 67.222h-307.543l21.838 38.234c33.075 57.882 53.057 122.458 58.646 188.826l-56.68 56.682zM511.859 49.939c-47.613 0-102.474 24.842-113.107 80.538h226.179c-10.72-55.174-65.51-80.538-113.072-80.538zM511.859 867.238v0.173c22.515 0 40.627-18.511 40.627-41.521v-16.781c137.798-20.068 221.36-141.343 221.36-287.701v-25.085c0-65.222 29.693-134.925 61.856-191.322l33.702-59.187c0.701-1.235 1.45-2.528 2.227-3.866 5.418-9.331 12.115-20.867 12.115-31.005 0-36.157-21.302-47.574-56.682-47.574h-35.984l92.672-92.672c13.139-13.002 13.002-34.25 0-47.389-13.002-13.142-34.25-13.142-47.389 0l-738.102 738.1c-13.001 13.14-12.861 34.389 0.14 47.529s34.249 13.14 47.39 0l137.99-137.99c36.401 73.206 101.191 125.426 187.45 137.988v16.781c0 23.009 18.112 41.52 40.627 41.52zM714.998 521.235c0 114.701-90.902 228.485-203.139 228.485-78.045 0-145.779-55.023-179.802-127.113l25.798-25.875 366.080-366.141h72.995l-21.837 38.234c-39.274 69.027-60.096 147.395-60.096 227.325v25.085z" />
<glyph unicode="&#xe90a;" glyph-name="blank-profile" d="M272 325.632v397.984c0 14.592 13.376 28.352 27.552 28.352h440.896c16.384 0 27.552-15.936 27.552-28.352v-111.36l-55.104-31.84v114.848h-385.792v-337.792l-55.104-31.84zM272 251.744l55.104 31.84v-98.848h385.792v321.792l55.104 31.84v-381.984c0-14.592-13.408-28.352-27.552-28.352h-440.896c-14.176 0-27.552 18.88-27.552 33.472v90.24zM518.976 468.352l-53.952-31.168c-0.096 0.928-0.128 1.856-0.128 2.816 0 15.648 12.352 28.352 27.552 28.352h26.528zM548.704 411.648l93.376 53.952c9.28-4.576 15.68-14.304 15.68-25.6 0-15.648-12.352-28.352-27.552-28.352h-81.504zM420.8 411.648h-24.8c-7.584 0-13.792 6.368-13.792 14.176v28.352c0 7.808 6.208 14.176 13.792 14.176h27.552c7.584 0 13.792-6.368 13.792-14.176v-28.352c0-1.824-0.352-3.584-0.96-5.184l-15.552-8.992h-0.032zM382.592 315.648l18.848 10.912h22.112c7.584 0 13.792-6.368 13.792-14.176v-28.352c0-7.808-6.208-14.176-13.792-14.176h-27.552c-7.584 0-13.792 6.368-13.792 14.176v28.352c0 1.12 0.128 2.208 0.384 3.264zM630.208 326.56c15.2 0 27.552-12.704 27.552-28.352s-12.352-28.352-27.552-28.352h-137.792c-15.2 0-27.552 12.704-27.552 28.352s12.352 28.352 27.552 28.352h137.792zM492.448 553.44c-15.2 0-27.552 12.704-27.552 28.352s12.352 28.352 27.552 28.352h137.792c15.2 0 27.552-12.704 27.552-28.352s-12.352-28.352-27.552-28.352h-137.792zM423.552 553.248h-27.552c-7.584 0-13.792 6.368-13.792 14.176v28.352c0 7.808 6.208 14.176 13.792 14.176h27.552c7.584 0 13.792-6.368 13.792-14.176v-28.352c0-7.808-6.208-14.176-13.792-14.176zM125.856 177.184l747.008 431.296c11.488 6.624 26.144 2.688 32.8-8.8l1.28-2.24c6.624-11.488 2.688-26.144-8.8-32.8l-747.008-431.296c-11.488-6.624-26.144-2.688-32.8 8.8l-1.28 2.24c-6.624 11.488-2.688 26.144 8.8 32.8z" />
<glyph unicode="&#xe90b;" glyph-name="calendar" d="M374.752 816c8.192 0 14.976-6.176 15.904-14.144l0.096-1.856v-48h245.888v48c0 8.192 6.176 14.976 14.144 15.904l1.856 0.096h101.056c8.192 0 14.976-6.176 15.904-14.144l0.096-1.856v-46.848h110.304c8.192 0 14.976-6.176 15.904-14.144l0.096-1.856v-641.152c0-8.192-6.176-14.976-14.144-15.904l-1.856-0.096h-720c-8.192 0-14.976 6.176-15.904 14.144l-0.096 1.856v641.152c0 8.192 6.176 14.976 14.144 15.904l1.856 0.096h97.696v46.848c0 8.192 6.176 14.976 14.144 15.904l1.856 0.096h101.056zM864 560h-688v-448h688v448zM555.776 501.728c8.832 0 16-7.168 16-16v-80.384h80.864c8.192 0 14.976-6.176 15.904-14.144l0.096-1.856v-96.384c0-8.832-7.168-16-16-16h-80.864v-80.384c0-8.192-6.176-14.976-14.144-15.904l-1.856-0.096h-96.832c-8.832 0-16 7.168-16 16v80.384h-80.832c-8.192 0-14.976 6.176-15.904 14.144l-0.096 1.856v96.384c0 8.832 7.168 16 16 16h80.832v80.384c0 8.192 6.176 14.976 14.144 15.904l1.856 0.096h96.832zM539.776 469.728h-64.832v-80.384c0-8.192-6.176-14.976-14.144-15.904l-1.856-0.096h-80.864v-64.384h80.864c8.192 0 14.976-6.176 15.904-14.144l0.096-1.856v-80.384h64.832v80.384c0 8.192 6.176 14.976 14.144 15.904l1.856 0.096h80.832v64.384h-80.832c-8.192 0-14.976 6.176-15.904 14.144l-0.096 1.856v80.384zM864 721.152h-94.304v-46.88c0-8.192-6.176-14.976-14.144-15.904l-1.856-0.096h-101.056c-8.192 0-14.976 6.176-15.904 14.144l-0.096 1.856v45.728h-245.888v-45.728c0-8.192-6.176-14.976-14.144-15.904l-1.856-0.096h-101.056c-8.192 0-14.976 6.176-15.904 14.144l-0.096 1.856v46.88h-81.696v-129.152h688v129.152zM358.72 784h-69.056v-93.696h69.056v93.696zM737.664 784h-69.056v-93.696h69.056v93.696z" />
<glyph unicode="&#xe90c;" glyph-name="change" d="M330.080 480.896c8.768-8.832 9.248-22.72 1.536-32.128l-1.664-1.824-111.744-110.976h645.76c13.248 0 24-10.752 24-24 0-12.48-9.504-22.72-21.696-23.904l-2.304-0.096h-645.76l111.744-110.976c8.832-8.768 9.408-22.656 1.76-32.128l-1.632-1.824c-8.768-8.832-22.656-9.408-32.128-1.76l-1.824 1.632-154.048 153.056-1.312 1.632-1.312 1.92-0.8 1.408c-1.696 3.296-2.688 7.040-2.688 11.040s0.96 7.744 2.688 11.040l0.8 1.408 0.896 1.376 1.472 1.888 1.248 1.344 153.056 152c9.408 9.344 24.608 9.28 33.952-0.128zM693.92 768.928c9.344 9.408 24.544 9.472 33.952 0.128l154.304-153.344 1.472-1.888 0.896-1.376 0.8-1.408c1.728-3.296 2.688-7.040 2.688-11.040s-0.96-7.744-2.688-11.040l-0.8-1.408-1.312-1.92-1.312-1.632-0.992-1.056-153.056-152-1.824-1.632c-9.44-7.648-23.36-7.072-32.128 1.76l-1.632 1.824c-7.648 9.44-7.072 23.36 1.76 32.128l111.744 110.976-648.096 0.096c-12.16 1.152-21.696 11.424-21.696 23.904 0 13.248 10.752 24 24 24h645.76l-111.744 110.976-1.664 1.824c-7.712 9.408-7.2 23.296 1.568 32.128z" />
<glyph unicode="&#xe90d;" glyph-name="gps" d="M907.808 795.168l-363.584-727.264c-6.432-13.248-17.216-19.872-32.384-19.872-1.888 0-4.736 0.384-8.512 1.12-8.32 1.888-15.040 6.144-20.16 12.768s-7.68 14.112-7.68 22.432v327.264h-327.232c-8.32 0-15.808 2.56-22.432 7.68s-10.88 11.84-12.768 20.16c-1.888 8.32-1.12 16.288 2.272 23.872s8.896 13.248 16.48 17.056l727.168 363.648c4.928 2.656 10.4 3.968 16.48 3.968 10.24 0 18.752-3.584 25.568-10.784 5.696-5.312 9.184-11.84 10.496-19.616s0.096-15.232-3.68-22.432h-0.032z" />
<glyph unicode="&#xe90e;" glyph-name="check" d="M365.568 271.264l481.952 480.736 64.48-64.16-546.432-543.84-253.536 252.352 63.392 64.16 190.144-189.248z" />
<glyph unicode="&#xe90f;" glyph-name="chronic-disease" d="M326.56 829.888c0-18.112-7.264-36.192-18.176-47.072 0 0-21.824 7.232-50.912 7.232-43.648 0-72.736-21.728-72.736-108.608s29.088-104.992 72.736-104.992c29.088 0 54.56 10.848 54.56 10.848 10.912-10.848 18.176-28.96 18.176-47.072 0 0-29.088-18.112-83.648-18.112-87.264 0-134.56 57.92-134.56 162.88s47.264 162.88 134.56 162.88c50.912 0 80-18.112 80-18.112v0.128zM846.56 551.168l65.44 14.496-7.264 39.808-61.824-14.496c-3.648 10.848-7.264 21.728-14.56 32.576l54.56 28.96-18.176 36.192-61.824-32.576c-7.264 3.616-10.912 7.232-18.176 10.848l18.176 61.536-36.352 10.848-21.824-61.536c-10.912 3.616-21.824 3.616-32.736 3.616l-14.56 54.304-40-10.848 10.912-50.688c-10.912-3.616-21.824-10.848-32.736-18.112l-21.824 43.424-32.736-21.728 32.736-47.072c-7.264-7.232-14.56-18.112-21.824-28.96l-36.352 36.192-29.088-28.96 40-39.808c-7.264-10.848-14.56-21.728-25.44-32.576l-40 36.192-25.44-32.576 43.648-36.192c-10.912-10.848-21.824-25.344-32.736-36.192l-36.352 39.808-29.088-28.96 36.352-39.808c-10.912-10.848-25.44-18.112-36.352-28.96l-29.088 50.688-32.736-21.728 32.736-50.688c-7.264-3.616-14.56-7.232-21.824-14.496-10.912 3.616-14.56 0-18.176 0l-40 54.304-32.736-25.344 40-54.304c-10.912-7.232-21.824-14.496-29.088-25.344l-50.912 36.192-25.44-32.576 50.912-36.192c-3.648-7.232-3.648-14.496-7.264-18.112h-69.088v-39.808h65.44c0-7.232 0-14.496 3.648-21.728l-72.736-18.112 10.912-36.192 76.352 18.112c3.648-3.616 3.648-7.232 7.264-10.848l-50.912-50.688 29.088-32.576 47.264 50.688c7.264-7.232 14.56-10.848 21.824-14.496l-18.176-54.304 40-10.848 18.176 54.304h36.352l3.648-57.92 40 3.616-7.264 61.536c7.264 3.616 18.176 3.616 25.44 7.232l25.44-54.304 36.352 18.112-25.44 54.304c10.912 7.232 21.824 10.848 32.736 18.112l29.088-47.072 32.736 21.728-29.088 47.072c10.912 7.232 18.176 14.496 25.44 18.112l40-43.424 29.088 28.96-36.352 39.808c7.264 7.232 18.176 14.496 25.44 21.728l43.648-43.424 29.088 28.96-43.648 43.424c7.264 7.232 14.56 14.496 21.824 21.728l47.264-36.192 25.44 32.576-47.264 36.192c7.264 10.848 18.176 21.728 25.44 32.576l50.912-32.576 21.824 32.576-50.912 32.576c7.264 10.848 14.56 21.728 21.824 32.576l54.56-21.728 14.56 36.192-50.912 21.728c7.264 10.848 10.912 21.728 14.56 36.192l61.824-18.112 10.912 39.808-65.44 21.728c7.264-3.616 7.264 3.616 10.912 10.848l-0.032 0.096zM650.176 283.296c-80-86.88-189.088-152.032-265.44-152.032-36.352 0-65.44 14.496-80 54.304-47.264 130.304 80 119.456 203.648 242.528 105.44 104.992 134.56 206.336 203.648 209.952 10.912 0 25.44-3.616 40-7.232 116.352-54.304 21.792-217.184-101.856-347.52zM475.648 228.992c0-32-26.048-57.92-58.176-57.92s-58.176 25.92-58.176 57.92c0 32 26.048 57.92 58.176 57.92s58.176-25.92 58.176-57.92zM621.088 323.104c0-20-16.288-36.192-36.352-36.192s-36.352 16.192-36.352 36.192c0 20 16.288 36.192 36.352 36.192s36.352-16.192 36.352-36.192zM693.824 464.288c0-21.984-17.92-39.808-40-39.808s-40 17.824-40 39.808c0 21.984 17.92 39.808 40 39.808s40-17.824 40-39.808zM766.56 540.32c0-20-16.288-36.192-36.352-36.192s-36.352 16.192-36.352 36.192c0 20 16.288 36.192 36.352 36.192s36.352-16.192 36.352-36.192z" />
<glyph unicode="&#xe910;" glyph-name="circle-check" d="M512 112c185.568 0 336 150.432 336 336s-150.432 336-336 336c-185.568 0-336-150.432-336-336s150.432-336 336-336zM512 48c-220.928 0-400 179.072-400 400s179.072 400 400 400c220.928 0 400-179.072 400-400s-179.072-400-400-400zM439.744 328.544l273.408 274.048 36.576-36.576-310.016-310.016-143.84 143.84 35.968 36.576 107.904-107.872z" />
<glyph unicode="&#xe911;" glyph-name="circle-wrong" d="M512 112c185.568 0 336 150.432 336 336s-150.432 336-336 336c-185.568 0-336-150.432-336-336s150.432-336 336-336zM512 48c-220.928 0-400 179.072-400 400s179.072 400 400 400c220.928 0 400-179.072 400-400s-179.072-400-400-400zM379.744 348.544l273.408 274.048 36.576-36.576-310.016-310.016-35.456 37.28 35.488 35.264zM654.272 348.544l-273.408 274.048-36.576-36.576 310.016-310.016 35.456 37.28-35.488 35.264z" />
<glyph unicode="&#xe912;" glyph-name="close" d="M848.96 784.96c8.8-8.8 9.344-22.688 1.664-32.128l-1.664-1.824-303.040-303.040 303.040-303.040c9.376-9.376 9.376-24.576 0-33.952-8.8-8.8-22.688-9.344-32.128-1.664l-1.824 1.664-303.040 303.040-303.040-303.040c-9.376-9.376-24.576-9.376-33.952 0-8.8 8.8-9.344 22.688-1.632 32.128l1.632 1.824 303.040 303.040-303.040 303.040c-9.376 9.376-9.376 24.576 0 33.952 8.8 8.8 22.688 9.344 32.128 1.632l1.824-1.632 303.040-303.040 303.040 303.040c9.376 9.376 24.576 9.376 33.952 0z" />
<glyph unicode="&#xe913;" glyph-name="delayed" d="M369.056 120.16c17.408-27.264 38.688-51.552 62.944-72.16h-285.728c-21.408 0-34.272 49.632-34.272 72.16 0 52.832 101.632 142.080 181.408 194.496l45.664-61.888c-56.224-38.976-131.648-108.608-158.56-132.608h188.544zM347.904 474.656c-46.368 38.88-75.904 96.864-75.904 161.664 0 116.704 95.712 211.68 213.344 211.68s213.344-94.976 213.344-211.68c0-2.464-0.288-4.864-0.384-7.296-22.784 5.152-46.432 8.128-70.784 8.16-0.512 77.536-63.904 140.288-142.144 140.288-78.528 0-142.208-63.2-142.208-141.12 0-41.376 18.272-78.208 46.848-104.032-16.064-17.568-30.272-36.8-42.048-57.6l-0.064-0.064zM670.88 581.344c133.184 0 241.12-119.424 241.12-266.688s-107.936-266.656-241.12-266.656c-71.584 0-156.672 47.808-179.84 89.504-5.824 10.496-10.752 26.112 2.592 37.088 13.536 11.104 27.168 3.104 34.336-5.472 38.144-45.184 103.712-67.136 142.912-67.136 106.016 0 192.288 95.424 192.288 212.64 0 117.28-86.24 212.64-192.288 212.64-94.464 0-172.832-75.872-188.864-175.328h42.528c13.44 0 17.12-9.088 8.192-20.192l-58.368-72.448c-8.928-11.104-23.52-11.104-32.48 0l-58.368 72.448c-8.928 11.104-5.248 20.192 8.192 20.192h40.736c16.448 129.536 116.736 229.408 238.432 229.408zM620.576 474.656c15.808 0 28.608-11.2 28.608-24.992v-116.608l94.432-82.432c11.168-9.728 11.168-25.536 0-35.328-5.6-4.864-12.928-7.296-20.224-7.296s-14.624 2.432-20.192 7.296c0 0-107.52 94.816-108.992 97.888-1.472 3.040-2.208 6.272-2.208 9.536v126.944c0 13.792 12.8 24.992 28.576 24.992z" />
<glyph unicode="&#xe914;" glyph-name="doctor" d="M160 80c-8.192 0-14.976 6.176-15.904 14.144l-0.096 1.856v99.616c0 55.744 24.448 93.184 70.912 116.288 30.88 15.36 62.752 22.848 127.68 32.192l52.64 7.36c-25.12 25.248-44.352 56.832-50.304 90.336l-0.704 4.32-0.448 3.552-2.688 0.992c-28.832 11.712-38.496 51.744-29.024 82.496l-14.688 112.224-0.16 2.464c-0.448 8.48 0.032 19.2 2.144 31.392 3.136 18.016 9.344 35.808 19.36 52.512 31.776 52.928 94.464 84.288 193.536 84.288s161.792-31.36 193.536-84.288c10.016-16.704 16.224-34.496 19.36-52.512 2.112-12.16 2.592-22.88 2.144-31.392l-0.256-3.008-15.072-111.712c9.12-29.664 0.416-68-26.144-81.152l-2.912-1.312-2.688-0.992-0.448-3.552c-5.024-35.232-24.928-68.512-51.264-94.912 5.952-0.832 13.152-1.824 22.368-3.104l16.16-2.208 0.448-0.032c0.224-0.032 0.448-0.064 0.64-0.096l10.272-1.44c68.32-9.664 101.408-17.312 132.736-33.184 43.808-22.24 67.328-57.824 68.768-110.368l0.064-5.12v-99.616c0-8.192-6.176-14.976-14.144-15.904l-1.856-0.096-703.968-0.032zM428.288 324.064l-5.248-0.864-23.136-3.456-9.6-1.312v-55.456c26.432-7.072 45.888-31.168 45.888-59.808 0-34.208-27.712-61.92-61.92-61.92s-61.92 27.712-61.92 61.92c0 28.672 19.488 52.8 45.952 59.84v51.008l-3.968-0.544c-134.432-19.264-176.992-41.888-178.272-114.304l-0.032-87.104h304.672v186.944c-17.44 4.928-35.424 13.6-52.416 25.12v-0.064zM519.072 294.528l-3.584-0.192-2.816-0.032v-182.304h335.328v83.616c0 73.344-38.816 96.8-166.656 115.904l-0.16-16.256c52.16-2.816 75.136-20.192 76.32-57.504l0.064-3.104v-48.992c0-22.496-23.008-44.448-46.624-44.448-8.832 0-16 7.168-16 16 0 8.192 6.176 14.976 14.144 15.904l1.856 0.096c5.76 0 13.344 6.784 14.464 11.36l0.16 1.088v48.992c0 21.888-10.784 28.992-60.064 29.024l-0.608-0.032-0.416 0.032-8.064-0.096c-40.992-0.8-51.264-7.84-51.872-26.976l-0.032-1.952v-48.992c0-4.128 7.104-11.232 13.12-12.288l1.472-0.128c8.832 0 16-7.168 16-16s-7.168-16-16-16c-22.752 0-44.96 20.384-46.528 42.016l-0.096 2.4v48.992c0 39.52 22.848 57.792 76.64 60.64l0.192 20.768-39.616 5.536-14.24 2.272c-24.928-16.832-52.032-27.584-76.384-29.344zM374.272 233.056c-16.512 0-29.92-13.408-29.92-29.92s13.408-29.92 29.92-29.92c16.512 0 29.92 13.408 29.92 29.92s-13.408 29.92-29.92 29.92zM509.696 667.84l-0.064-7.264c-1.728-2.304-3.52-4.48-5.504-6.624-19.936-21.856-52.224-34.688-104.96-37.6l-5.952-0.288-5.728-0.192-12.8-63.872c-1.248-6.24-6.016-11.008-11.968-12.416l-1.824-0.32-4.064-0.256c-21.696-3.296-21.696-56.32 0.064-59.52l2.112-0.16 1.856-0.096c7.968-0.928 14.144-7.68 14.144-15.904 0-68.736 82.944-137.056 137.024-137.056 20 0 43.968 9.344 66.24 24.608 1.792 2.272 4.192 4 6.88 4.992 34.912 26.272 63.904 66.784 63.904 107.424 0 8.192 6.176 14.976 14.144 15.904l1.856 0.096 2.176 0.16c21.696 3.296 21.696 56.288-0.064 59.52l-2.112 0.16-1.888 0.096c-6.208 0.736-11.424 5.024-13.344 10.944l-0.48 1.824-12.672 63.808-5.696 0.192c-52.256 2.144-85.216 13.44-106.208 33.216l-2.368 2.304-2.272 2.4c-3.904 4.288-7.168 8.736-10.464 13.888l0.032 0.032zM460.672 555.808c8.992-0.064 13.344-0.672 18.976-2.912 11.552-4.608 17.728-14.816 17.728-28.416 0-8.832-7.168-16-16-16-8.192 0-14.976 6.176-15.904 14.144l-0.064 0.992-2.656 0.16c-0.96 0.032-2.080 0.064-3.36 0.064h-17.216c-1.28 0-2.4-0.032-3.36-0.064l-2.688-0.16-0.032-0.992c-0.864-7.36-6.688-13.184-14.016-14.016l-1.856-0.096c-8.832 0-16 7.168-16 16 0 13.6 6.208 23.808 17.728 28.416 5.632 2.24 9.984 2.848 18.976 2.912h19.776l-0.032-0.032zM583.104 555.808c8.992-0.064 13.344-0.672 18.976-2.912 11.552-4.608 17.728-14.816 17.728-28.416 0-8.832-7.168-16-16-16-8.192 0-14.976 6.176-15.904 14.144l-0.064 0.992-2.688 0.16c-0.96 0.032-2.048 0.064-3.36 0.064h-17.216c-1.312 0-2.4-0.032-3.36-0.064l-2.688-0.16-0.064-0.992c-0.864-7.36-6.688-13.184-14.016-14.016l-1.856-0.096c-8.832 0-16 7.168-16 16 0 13.6 6.208 23.808 17.728 28.416 5.632 2.24 9.984 2.848 18.976 2.912h19.776l0.032-0.032zM512.256 784c-88.384 0-140.48-26.048-166.112-68.768-7.872-13.12-12.768-27.2-15.264-41.536-1.44-8.256-1.92-15.552-1.824-21.408l0.128-3.424 10.72-81.664 1.92 0.8 1.984 0.704 1.696 0.512 13.152 65.536c1.248 6.24 6.016 11.008 11.968 12.416l1.824 0.32 1.888 0.096c59.488 0 90.144 10.304 106.144 27.84 1.92 2.112 3.648 4.32 5.376 6.848l1.76 2.656 6.368 10.4c2.24 3.488 4.352 6.24 6.848 8.736 6.24 6.24 16.384 6.24 22.624 0 2.496-2.496 4.608-5.28 6.88-8.832 0.992-1.536 4.192-6.88 5.728-9.376l0.608-0.992 1.76-2.656c1.728-2.528 3.456-4.736 5.344-6.848 15.936-17.536 46.528-27.84 106.048-27.84 7.008 0 13.12-4.544 15.232-11.072l0.48-1.824 12.992-65.472 1.664-0.512c1.408-0.448 2.752-0.992 4.064-1.568l11.008 81.792 0.032 0.544c0.32 6.208-0.032 14.56-1.728 24.192-2.496 14.336-7.392 28.416-15.264 41.536-25.632 42.72-77.696 68.768-166.112 68.768l0.064 0.096z" />
<glyph unicode="&#xe915;" glyph-name="circle-wrong-full" d="M671.584 312.416c6.784-6.816 6.752-17.824-0.032-24.576-3.424-3.424-7.872-5.088-12.288-5.088-4.448 0-8.928 1.696-12.32 5.12l-135.040 135.552-135.552-134.976c-3.36-3.424-7.84-5.088-12.256-5.088-4.448 0-8.928 1.664-12.352 5.12-6.752 6.784-6.752 17.824 0.064 24.576l135.52 134.976-134.976 135.552c-6.784 6.816-6.784 17.824 0.032 24.576 6.784 6.816 17.824 6.784 24.576-0.032l135.040-135.552 135.52 134.976c6.816 6.816 17.856 6.816 24.576-0.032 6.784-6.784 6.784-17.824-0.032-24.576l-135.552-134.976 135.072-135.552zM511.968 848c-220.096 0-399.552-179.072-399.968-399.232-0.224-106.816 41.184-207.36 116.576-283.072s175.776-117.504 282.656-117.696h0.768c220.128 0 399.584 179.104 400 399.232 0.416 220.544-178.688 400.352-400.032 400.768z" />
<glyph unicode="&#xe916;" glyph-name="documents1" d="M796.448 848h-568.896c-18.272 0-35.552-17.664-35.552-36.352v-720.736c0-18.688 17.28-42.912 35.552-42.912h568.896c18.272 0 35.552 17.664 35.552 36.352v727.264c0 15.936-14.432 36.384-35.552 36.384zM263.104 775.264h497.792v-654.56h-497.792v654.56zM654.208 302.56h-177.792c-19.616 0-35.552-16.288-35.552-36.352s15.936-36.352 35.552-36.352h177.792c19.616 0 35.552 16.288 35.552 36.352s-15.936 36.352-35.552 36.352zM654.208 484.352h-177.792c-19.616 0-35.552-16.288-35.552-36.352s15.936-36.352 35.552-36.352h177.792c19.616 0 35.552 16.288 35.552 36.352s-15.936 36.352-35.552 36.352zM476.448 593.44h177.792c19.616 0 35.552 16.288 35.552 36.352s-15.936 36.352-35.552 36.352h-177.792c-19.616 0-35.552-16.288-35.552-36.352s15.936-36.352 35.552-36.352zM387.552 593.184h-35.552c-9.792 0-17.792 8.192-17.792 18.176v36.352c0 10.016 8 18.176 17.792 18.176h35.552c9.792 0 17.792-8.192 17.792-18.176v-36.352c0-10.016-8-18.176-17.792-18.176zM387.552 411.648h-35.552c-9.792 0-17.792 8.192-17.792 18.176v36.352c0 10.016 8 18.176 17.792 18.176h35.552c9.792 0 17.792-8.192 17.792-18.176v-36.352c0-10.016-8-18.176-17.792-18.176zM387.552 229.824h-35.552c-9.792 0-17.792 8.192-17.792 18.176v36.352c0 10.016 8 18.176 17.792 18.176h35.552c9.792 0 17.792-8.192 17.792-18.176v-36.352c0-10.016-8-18.176-17.792-18.176z" />
<glyph unicode="&#xe917;" glyph-name="edit" d="M677.664 762.592c28.544 28.544 74.848 28.544 103.328 0l61.632-61.632c28.48-28.512 28.48-74.72 0-103.328l-19.872-19.936c-0.192-0.224-0.384-0.448-0.608-0.64l-0.672-0.576-40.096-40.16c-0.224-0.256-0.448-0.512-0.704-0.736l-0.704-0.608-382.912-382.912c-0.128-0.128-0.224-0.224-0.352-0.352l-0.384-0.32-6.944-6.944c-1.472-1.472-3.232-2.624-5.184-3.36l-1.984-0.608-187.84-44.064c-10.816-2.528-20.512 7.168-17.984 17.984l44.064 187.808c0.64 2.72 2.016 5.184 4 7.168l6.848 6.88c0.16 0.16 0.288 0.32 0.448 0.48l0.448 0.416 383.552 383.616c0.096 0.096 0.192 0.192 0.288 0.288l0.288 0.256 40.608 40.64c0.064 0.064 0.096 0.096 0.16 0.16l0.16 0.16 20.416 20.32zM246.24 281.088l-35.2-150.016 149.984 35.2-114.784 114.816zM626.56 669.248l-363.072-363.104 122.624-122.624 362.816 362.752-122.368 122.976zM667.648 710.336l-19.936-19.936 122.368-122.976 20.288 20.256-122.72 122.656zM759.808 741.472c-16.832 16.832-44.192 16.832-61.024 0l-9.984-9.952 122.688-122.656 9.952 9.92c15.456 15.52 16.736 39.808 3.808 56.736l-1.856 2.272-1.952 2.080-61.632 61.6z" />
<glyph unicode="&#xe918;" glyph-name="exam" d="M506.432 784c32.736 0 60.352-21.984 68.928-52l0.832-3.232 0.096-0.416h41.44c7.584 0 13.92-5.248 15.584-12.32l0.32-1.792 0.096-1.856v-11.808h123.136c8.192 0 14.976-6.176 15.904-14.144l0.096-1.856v-556.512c0-8.192-6.176-14.976-14.144-15.904l-1.856-0.096h-500.864c-8.192 0-14.976 6.176-15.904 14.144l-0.096 1.856v556.512c0 8.192 6.176 14.976 14.144 15.904l1.856 0.096h123.136v11.808c0 8.192 6.176 14.976 14.144 15.904l1.856 0.096h41.44l0.96 3.68c7.968 27.904 32.384 48.864 62.080 51.648l3.456 0.256 3.36 0.032zM379.136 668.544h-107.136v-524.544h468.864v524.544h-107.136v-23.648h67.488c8.192 0 14.976-6.176 15.904-14.144l0.096-1.856v-417.376c0-8.192-6.176-14.976-14.144-15.904l-1.856-0.096h-389.568c-8.192 0-14.976 6.176-15.904 14.144l-0.096 1.856v417.376c0 8.192 6.176 14.976 14.144 15.904l1.856 0.096h67.456l0.032 23.648zM530.144 445.792l-51.168-102.368c-5.184-10.368-19.136-11.808-26.4-3.328l-1.216 1.6-43.104 64.672-28.16-37.568c-2.656-3.52-6.592-5.792-10.912-6.304l-1.888-0.096h-39.68l0.032-134.976h357.568v134.976h-43.648l-37.312-74.656c-6.24-12.448-23.968-11.392-29.056 0.928l-0.64 1.824-44.384 155.232-0.032 0.064zM685.216 612.864h-65.888l-1.6-0.096h-222.624c-0.544 0-1.056 0.032-1.6 0.064l-65.888 0.032-0.032-218.432h31.648l36.96 49.248c6.208 8.288 18.336 8.48 24.896 0.896l1.216-1.632 40.352-60.544 57.248 114.464c6.24 12.448 23.968 11.392 29.056-0.928l0.64-1.824 44.352-155.232 23.328 46.688c2.4 4.832 7.040 8.064 12.32 8.736l1.984 0.128h53.536v218.432h0.096zM506.432 752c-20.992 0-38.208-16.384-39.552-37.056l-0.096-2.592-0.096-1.856c-0.864-7.36-6.688-13.184-14.016-14.016l-1.856-0.096h-39.648v-51.456h190.624v51.456h-39.648c-7.584 0-13.92 5.248-15.584 12.32l-0.32 1.792-0.096 1.856c0 21.888-17.76 39.648-39.648 39.648h-0.064z" />
<glyph unicode="&#xe919;" glyph-name="eye" d="M854.848 448c-45.248 69.92-101.92 122.208-170.080 156.896 18.144-30.816 27.232-64.16 27.232-100 0-54.816-19.552-101.696-58.72-140.672s-86.24-58.432-141.28-58.432c-55.072 0-102.144 19.488-141.28 58.432s-58.72 85.856-58.72 140.672c0 35.84 9.088 69.184 27.232 100-68.16-34.656-124.864-86.976-170.080-156.896 39.584-60.736 89.216-109.12 148.896-145.12s124.32-54.016 193.984-54.016c69.632 0 134.304 18.016 193.984 54.016s109.312 84.384 148.896 145.12h-0.064zM527.168 603.552c4.16 4.16 6.24 9.184 6.24 15.104s-2.080 10.976-6.24 15.104c-4.16 4.16-9.216 6.208-15.168 6.208-37.216 0-69.12-13.248-95.744-39.776s-39.968-58.304-39.968-95.328c0-5.92 2.080-10.976 6.24-15.104s9.216-6.208 15.168-6.208c5.952 0 11.008 2.080 15.168 6.208s6.24 9.184 6.24 15.104c0 25.472 9.088 47.264 27.232 65.344s40.032 27.104 65.632 27.104c5.952 0 11.008 2.080 15.168 6.208l0.032 0.032zM903.072 478.656c5.952-10.368 8.928-20.608 8.928-30.656s-2.976-20.288-8.928-30.656c-41.664-68.16-97.696-122.752-168.096-163.776s-144.704-61.568-222.976-61.568c-78.272 0-152.608 20.576-222.976 61.792s-126.4 95.712-168.096 163.552c-5.952 10.368-8.928 20.608-8.928 30.656s2.976 20.288 8.928 30.656c41.664 67.84 97.696 122.368 168.096 163.552s144.704 61.792 222.976 61.792c78.272 0 152.608-20.608 222.976-61.792s126.4-95.712 168.096-163.552z" />
<glyph unicode="&#xe91a;" glyph-name="eye-none" d="M770.592 546.72l52.32 30.304c30.912-28.896 57.632-61.664 80.16-98.368 5.952-10.368 8.928-20.608 8.928-30.656s-2.976-20.288-8.928-30.656c-41.664-68.16-97.696-122.752-168.096-163.776s-144.704-61.568-222.976-61.568c-78.272 0-152.608 20.576-222.976 61.792-4 2.336-7.936 4.736-11.84 7.136l56.768 32.864c55.232-29.952 114.592-44.896 178.080-44.896 69.632 0 134.304 18.016 193.984 54.016s109.312 84.384 148.896 145.12c-24.672 38.144-52.768 71.072-84.288 98.72l-0.032-0.032zM711.84 512.704c0.096-2.592 0.16-5.184 0.16-7.808 0-54.816-19.552-101.696-58.72-140.672s-86.24-58.432-141.28-58.432c-39.36 0-74.624 9.952-105.856 29.856l305.696 177.056zM337.504 406.816c-16.992 29.248-25.504 61.92-25.504 98.080 0 35.84 9.088 69.184 27.232 100-68.16-34.656-124.864-86.976-170.080-156.896 22.912-35.168 49.184-66.176 78.816-93.024l-52.64-30.496c-28.48 27.52-53.28 58.496-74.4 92.864-5.952 10.368-8.928 20.608-8.928 30.656s2.976 20.288 8.928 30.656c41.664 67.84 97.696 122.368 168.096 163.552s144.704 61.792 222.976 61.792c78.272 0 152.608-20.608 222.976-61.792 1.472-0.864 2.944-1.728 4.416-2.624l-401.888-232.768zM527.168 603.552c4.16 4.16 6.24 9.184 6.24 15.104s-2.080 10.976-6.24 15.104c-4.16 4.16-9.216 6.208-15.168 6.208-37.216 0-69.12-13.248-95.744-39.776s-39.968-58.304-39.968-95.328c0-5.92 2.080-10.976 6.24-15.104s9.216-6.208 15.168-6.208c5.952 0 11.008 2.080 15.168 6.208s6.24 9.184 6.24 15.104c0 25.472 9.088 47.264 27.232 65.344s40.032 27.104 65.632 27.104c5.952 0 11.008 2.080 15.168 6.208l0.032 0.032zM125.856 177.184l747.008 431.296c11.488 6.624 26.144 2.688 32.8-8.8l1.28-2.24c6.624-11.488 2.688-26.144-8.8-32.8l-747.008-431.296c-11.488-6.624-26.144-2.688-32.8 8.8l-1.28 2.24c-6.624 11.488-2.688 26.144 8.8 32.8z" />
<glyph unicode="&#xe91b;" glyph-name="filter" d="M175.999 800l-1.792-0.096c-12.384-1.312-18.752-16.16-10.528-26.112l288.481-348.768v-313.024c0-14.24 17.248-21.408 27.328-11.328l87.648 87.648 1.376 1.6c2.112 2.784 3.296 6.208 3.296 9.728v225.376l288.512 348.768c8.64 10.432 1.216 26.208-12.32 26.208h-672.001zM813.984 768l-271.776-328.832c-1.536-2.496-2.368-5.408-2.368-8.384v-224.48l-55.648-55.648v280.128l-0.16 2.208c-0.416 2.912-1.632 5.696-3.52 7.968l-270.497 327.040h603.969z" />
<glyph unicode="&#xe91c;" glyph-name="fingerprint" d="M912 446.592c0 195.68-140.448 361.92-330.336 395.392-8 1.408-15.648-3.968-17.056-12s3.936-15.712 11.968-17.12c175.872-31.008 305.984-184.992 305.984-366.272 0-8.16 6.592-14.784 14.72-14.784s14.72 6.624 14.72 14.784zM506.688 848c-151.424-1.984-286.88-89.184-353.152-223.072-3.616-7.328-0.64-16.192 6.656-19.808s16.128-0.64 19.744 6.656c61.376 124.032 186.848 204.832 327.136 206.656 8.128 0.096 14.656 6.816 14.528 14.976s-6.784 14.688-14.912 14.592zM127.392 557.248c-10.176-35.68-15.392-72.832-15.392-110.688 0-45.792 7.648-90.528 22.432-132.864 2.688-7.712 11.104-11.776 18.784-9.056s11.712 11.136 9.024 18.848c-13.696 39.2-20.768 80.64-20.768 123.104 0 35.072 4.832 69.504 14.272 102.528 2.24 7.84-2.272 16.032-10.112 18.272s-15.968-2.304-18.208-10.144h-0.032zM840.064 515.776c-32.224 154.656-168.672 267.168-328.064 267.168-43.84 0-86.56-8.448-126.336-24.704-7.552-3.072-11.168-11.712-8.096-19.264s11.68-11.2 19.2-8.128c36.256 14.816 75.2 22.528 115.2 22.528 145.376 0 269.824-102.656 299.232-243.68 1.664-8 9.472-13.12 17.44-11.456s13.056 9.504 11.392 17.504l0.032 0.032zM318.368 721.184c-45.728-32.544-85.824-81.12-111.2-137.44-28.992-64.352-37.824-135.744-22.656-208.928 1.664-8 9.44-13.12 17.408-11.456s13.088 9.504 11.424 17.472c-13.856 66.944-5.824 131.968 20.672 190.752 23.2 51.52 59.904 95.968 101.376 125.504 6.624 4.736 8.192 13.952 3.488 20.608s-13.888 8.224-20.544 3.52l0.032-0.032zM210.272 225.344c6.144 27.52 9.28 55.776 9.28 84.448 0 24.48-2.272 48.64-6.784 72.32-1.536 8.032-9.248 13.28-17.216 11.744s-13.248-9.28-11.712-17.28c4.16-21.856 6.24-44.192 6.24-66.784 0-26.496-2.88-52.608-8.576-77.984-1.792-7.968 3.2-15.872 11.168-17.664s15.808 3.232 17.6 11.2zM776 505.248c-16.096 73.248-61.984 136.448-125.888 174.624-6.976 4.192-16.032 1.888-20.192-5.152s-1.856-16.096 5.12-20.256c56.96-34.048 97.856-90.368 112.192-155.584 1.76-7.968 9.6-13.024 17.568-11.264s12.928 9.664 11.2 17.632zM247.712 385.888c1.248-8.064 8.8-13.6 16.832-12.32s13.536 8.832 12.288 16.896c-2.752 17.76-4.448 31.52-5.28 41.76-0.32 3.776-0.48 6.88-0.544 9.312-0.032 1.632-0.032 2.752 0 3.424l0.096 1.632c0 133.536 107.84 241.76 240.896 241.76 21.536 0 42.656-2.816 63.040-8.352 7.84-2.144 15.936 2.528 18.080 10.4s-2.528 16-10.368 18.144c-22.88 6.208-46.592 9.376-70.72 9.376-149.088 0-269.984-121.12-270.336-270.688-0.544-9.696 0.96-28.544 6.080-61.344h-0.064zM512.736 624.768c54.528 0 104.96-24.704 138.624-66.4 5.12-6.336 14.4-7.328 20.736-2.176s7.296 14.464 2.176 20.8c-39.2 48.576-98.016 77.376-161.504 77.376-114.72 0-207.744-93.344-207.744-208.48 0.032-1.248 0.096-2.336 0.192-3.872 0.128-2.496 0.32-5.28 0.544-8.288 0.64-8.576 1.504-17.184 2.656-25.28 1.248-8.736 2.72-16.416 4.544-22.816 2.24-7.84 10.4-12.384 18.208-10.144s12.352 10.432 10.112 18.272c-1.408 4.896-2.656 11.328-3.712 18.848-1.056 7.36-1.856 15.36-2.464 23.328-0.224 2.816-0.384 5.408-0.512 7.744-0.032 0.8-0.096 1.536-0.128 2.144 0.16 99.072 79.904 179.008 178.24 179.008l0.032-0.064zM653.728 470.208c-11.36 69.152-71.168 120.544-141.728 120.544-16.64 0-32.896-2.848-48.256-8.352-7.648-2.752-11.648-11.2-8.928-18.88s11.168-11.712 18.816-8.96c12.192 4.352 25.12 6.624 38.336 6.624 56.096 0 103.616-40.864 112.64-95.776 1.312-8.064 8.896-13.504 16.928-12.192s13.472 8.928 12.128 16.992h0.064zM424.992 520.768c5.28 6.208 4.512 15.552-1.664 20.832s-15.488 4.544-20.768-1.696c-21.92-25.888-34.176-58.688-34.176-93.376v-0.608c0.032-0.64 0.096-1.76 0.16-3.328 0.16-2.528 0.352-5.376 0.608-8.384 0.704-8.704 1.728-17.408 3.104-25.632 1.536-9.216 3.424-17.28 5.824-23.968 2.752-7.68 11.168-11.712 18.816-8.96s11.648 11.2 8.928 18.912c-1.696 4.8-3.232 11.264-4.512 18.88-1.216 7.328-2.144 15.232-2.784 23.2-0.224 2.784-0.416 5.376-0.544 7.68-0.032 0.8-0.096 1.504-0.128 2.112 0.064 27.84 9.76 53.792 27.136 74.272v0.064zM587.808 462.72c-7.232 35.552-38.496 61.472-75.072 61.472-42.304 0-76.608-34.432-76.608-76.896 0-1.856 0.096-4.896 0.416-8.896 0.512-6.56 1.408-13.536 2.816-20.608 1.6-8 9.344-13.216 17.344-11.616s13.152 9.408 11.552 17.408c-1.152 5.856-1.92 11.648-2.336 17.088-0.16 1.888-0.224 3.584-0.288 5.056-0.032 0.832-0.032 1.376-0.032 1.568 0 26.144 21.12 47.328 47.136 47.328 22.496 0 41.76-15.968 46.208-37.792 1.632-8 9.408-13.152 17.376-11.552s13.12 9.44 11.488 17.44zM862.464 259.456c0.608 14.272 0.928 28.608 0.928 42.944 0 6.592-0.064 13.184-0.192 19.744-0.16 8.16-6.88 14.656-15.008 14.496s-14.592-6.912-14.432-15.072c0.128-6.368 0.192-12.768 0.192-19.168 0-13.92-0.288-27.808-0.896-41.664-0.352-8.16 5.952-15.072 14.080-15.424s14.976 5.984 15.328 14.144zM859.040 395.328c-3.84 40.672-10.176 80.896-18.976 120.48-1.76 7.968-9.632 12.992-17.6 11.2s-12.928-9.696-11.168-17.664c8.512-38.368 14.688-77.376 18.4-116.8 0.768-8.128 7.968-14.112 16.064-13.344s14.048 8 13.28 16.128zM786.976 158.624c7.712 47.712 11.584 96.256 11.584 145.248 0 68.384-7.584 135.776-22.464 201.312-1.824 7.968-9.696 12.96-17.632 11.136s-12.896-9.728-11.104-17.696c14.4-63.392 21.728-128.576 21.728-194.752 0-47.424-3.776-94.368-11.232-140.544-1.312-8.064 4.16-15.648 12.192-16.96s15.584 4.16 16.896 12.224l0.032 0.032zM706.816 104.128c18.784 67.872 28.384 138.368 28.384 210.112 0 64.992-7.904 128.992-23.328 190.912-1.984 7.936-9.984 12.736-17.856 10.752s-12.704-10.016-10.72-17.92c14.88-59.584 22.464-121.152 22.464-183.744 0-69.088-9.248-136.928-27.328-202.208-2.176-7.872 2.4-16.032 10.24-18.208s15.968 2.432 18.144 10.304zM626.88 69.376c27.712 79.424 42.016 163.392 42.016 249.28 0 51.328-5.12 102.016-15.168 151.552-1.632 8-9.408 13.152-17.376 11.52s-13.12-9.44-11.488-17.44c9.664-47.552 14.592-96.288 14.592-145.632 0-82.56-13.76-163.232-40.384-239.52-2.688-7.712 1.344-16.16 9.024-18.848s16.096 1.408 18.784 9.088zM554.624 57.216c23.136 57.248 38.432 117.6 45.28 179.712 0.896 8.128-4.928 15.424-13.024 16.32s-15.36-4.96-16.256-13.056c-6.56-59.392-21.184-117.12-43.296-171.872-3.072-7.552 0.576-16.192 8.128-19.264s16.096 0.576 19.168 8.16zM604.096 312.768c0 51.104-5.632 101.472-16.64 150.496-1.792 7.968-9.664 12.96-17.632 11.168s-12.928-9.728-11.136-17.696c10.56-46.88 15.936-95.072 15.936-143.968 0-8.16 6.592-14.784 14.72-14.784s14.752 6.624 14.752 14.784zM486.304 57.6c0.032 0.096 0.032 0.096 0.224 0.576s0.384 0.96 0.608 1.568c0.672 1.696 1.408 3.552 2.208 5.6 2.272 5.824 4.576 11.712 6.72 17.344 0.256 0.704 0.544 1.376 0.8 2.080 2.848 7.488 5.12 13.824 6.752 18.592 2.624 7.744-1.536 16.128-9.216 18.752s-16.064-1.536-18.688-9.248c-1.472-4.384-3.68-10.4-6.4-17.6-0.256-0.672-0.512-1.344-0.768-2.016-2.112-5.504-4.352-11.328-6.592-17.056-0.8-2.016-1.504-3.872-2.176-5.504-0.224-0.576-0.448-1.088-0.608-1.536s-0.16-0.448-0.224-0.544c-3.040-7.584 0.64-16.192 8.192-19.232s16.128 0.64 19.168 8.224zM522.368 170.112c11.168 49.344 16.896 100.064 16.896 151.52 0 42.944-3.968 85.408-11.808 126.976-1.504 8.032-9.216 13.312-17.216 11.776s-13.248-9.248-11.744-17.28c7.488-39.776 11.264-80.384 11.264-121.504 0-49.248-5.44-97.792-16.16-144.96-1.792-7.968 3.168-15.872 11.104-17.696s15.84 3.168 17.632 11.136l0.032 0.032zM420.096 71.2c36.608 79.168 55.808 165.664 55.808 254.88 0 32.832-2.592 65.312-7.744 97.28-1.28 8.064-8.864 13.536-16.896 12.256s-13.504-8.896-12.192-16.96c4.896-30.4 7.36-61.344 7.36-92.576 0-84.864-18.272-167.136-53.088-242.432-3.424-7.424-0.224-16.192 7.168-19.648s16.128-0.224 19.552 7.2h0.032zM359.36 93.088c34.368 67.424 53.184 144.256 53.184 221.152 0 26.464-2.24 52.672-6.656 78.368-1.376 8.064-8.992 13.44-17.024 12.064s-13.408-9.024-12.032-17.088c4.128-24.064 6.208-48.576 6.208-73.344 0-72.16-17.696-144.384-49.952-207.68-3.712-7.264-0.832-16.192 6.4-19.904s16.16-0.832 19.872 6.432zM345.792 274.88c1.28 14.016 1.92 28.128 1.92 42.304 0 26.016-2.176 51.776-6.432 77.056-1.344 8.064-8.96 13.472-16.992 12.096s-13.44-8.992-12.064-17.056c4-23.648 6.016-47.744 6.016-72.128 0-13.28-0.608-26.496-1.792-39.616-0.736-8.128 5.216-15.328 13.344-16.064s15.264 5.28 16 13.408zM305.888 125.312c11.232 24.416 20.288 49.824 27.104 75.968 2.048 7.904-2.656 15.968-10.528 18.048s-15.936-2.688-17.984-10.592c-6.336-24.448-14.816-48.192-25.344-71.040-3.424-7.424-0.192-16.192 7.2-19.616s16.128-0.192 19.552 7.232zM256 168.768c18.656 45.792 28.384 94.976 28.384 145.472 0 26.24-2.624 52.128-7.776 77.44-1.632 8-9.408 13.152-17.376 11.52s-13.12-9.44-11.488-17.44c4.768-23.36 7.168-47.264 7.168-71.52 0-46.656-8.96-92.032-26.176-134.272-3.072-7.552 0.512-16.192 8.064-19.296s16.128 0.544 19.2 8.096z" />
<glyph unicode="&#xe91d;" glyph-name="fingerprint-ok" d="M738.432 524.768c42.24-50.88 67.392-116.256 67.392-186.88 0-5.952-4.8-10.752-10.72-10.752s-10.72 4.8-10.72 10.752c0 61.728-20.736 119.104-55.936 164.992-4.288-8.288-9.088-16.288-14.304-23.936 18.752-26.656 32.384-57.312 39.36-90.688 1.216-5.824-2.496-11.52-8.288-12.736s-11.456 2.496-12.672 8.32c-5.856 28.064-16.896 54.048-32 76.992-5.664-6.848-11.744-13.376-18.144-19.52 11.392-18.528 19.744-39.040 24.512-60.736 1.28-5.792-2.368-11.552-8.16-12.832s-11.488 2.4-12.768 8.192c-3.968 18.112-10.784 35.296-19.968 51.008-18.4-14.688-39.008-26.688-61.28-35.424 6.496-10.976 11.104-23.264 13.248-36.416 0.96-5.856-2.976-11.392-8.832-12.352s-11.36 3.008-12.32 8.864c-1.984 12.064-6.528 23.2-13.024 32.864-9.472-2.72-19.168-4.864-29.056-6.368 7.584-7.584 13.024-17.344 15.264-28.416 1.184-5.824-2.56-11.488-8.352-12.672s-11.456 2.56-12.64 8.384c-3.232 15.872-17.216 27.488-33.6 27.488-18.944 0-34.304-15.392-34.304-34.4 0-0.16 0-0.544 0.032-1.152 0.032-1.056 0.096-2.304 0.224-3.68 0.288-3.968 0.864-8.16 1.696-12.416 1.152-5.824-2.592-11.488-8.416-12.64s-11.456 2.624-12.608 8.448c-1.024 5.152-1.696 10.208-2.048 15.008-0.224 2.912-0.288 5.12-0.288 6.464 0 15.936 6.624 30.304 17.28 40.48-10.176 1.792-20.096 4.256-29.76 7.296-9.888-13.888-15.328-30.592-15.36-48.384 0.032-0.448 0.064-0.96 0.096-1.536 0.096-1.696 0.224-3.552 0.384-5.6 0.48-5.792 1.152-11.552 2.048-16.864 0.928-5.536 2.048-10.24 3.264-13.728 1.984-5.6-0.928-11.744-6.496-13.76s-11.712 0.928-13.696 6.496c-1.728 4.864-3.104 10.72-4.224 17.408-0.992 5.984-1.728 12.32-2.24 18.624-0.192 2.208-0.32 4.256-0.448 6.112-0.064 1.12-0.096 1.952-0.128 2.4v0.448c0 20.16 5.696 39.424 16.128 55.968-7.552 3.2-14.944 6.784-22.080 10.72-11.808-19.616-18.624-42.656-18.656-67.296 0.032-0.448 0.064-0.96 0.096-1.536 0.096-1.696 0.224-3.584 0.384-5.632 0.448-5.824 1.024-11.616 1.792-16.96 0.768-5.472 1.696-10.144 2.688-13.696 1.632-5.696-1.664-11.648-7.36-13.28s-11.616 1.664-13.248 7.392c-1.312 4.64-2.4 10.208-3.296 16.576-0.832 5.888-1.472 12.128-1.952 18.4-0.16 2.176-0.288 4.192-0.384 6.048-0.064 1.12-0.096 1.92-0.128 2.816 0 28.736 7.968 55.584 21.792 78.464-6.912 4.672-13.568 9.728-19.936 15.104-16.8-26.976-26.496-58.88-26.496-93.024l-0.064-1.184c-0.032-0.48-0.032-1.312 0-2.496 0.032-1.792 0.16-4.032 0.384-6.784 0.608-7.456 1.824-17.44 3.84-30.368 0.928-5.856-3.072-11.36-8.928-12.288s-11.328 3.104-12.256 8.96c-3.712 23.872-4.832 37.568-4.416 44.608 0.096 39.616 11.808 76.48 31.936 107.36-6.048 6.112-11.744 12.576-17.088 19.328-7.776-11.328-14.656-23.488-20.384-36.256-19.264-42.752-25.12-90.048-15.040-138.72 1.216-5.824-2.528-11.52-8.32-12.704s-11.456 2.528-12.672 8.352c-11.040 53.248-4.608 105.152 16.48 151.968 7.328 16.288 16.384 31.712 26.688 45.824-5.184 8.032-9.92 16.384-14.112 25.056-12.48-15.424-23.392-32.32-32.384-50.496-2.624-5.312-9.056-7.488-14.368-4.864s-7.456 9.088-4.832 14.4c11.424 23.072 25.632 44.224 42.176 63.104-9.216 25.248-14.24 52.512-14.24 80.96 0 130.528 105.824 236.352 236.352 236.352s236.352-105.824 236.352-236.352c0-30.688-5.856-60-16.48-86.88l0.032-0.096zM235.2 418.368c1.632 5.696 7.552 9.024 13.248 7.392s8.992-7.584 7.36-13.312c-6.848-24.032-10.368-49.056-10.368-74.592 0-30.88 5.152-61.024 15.104-89.536 1.952-5.6-0.992-11.744-6.56-13.696s-11.712 0.992-13.664 6.592c-10.752 30.784-16.32 63.328-16.32 96.64 0 27.52 3.808 54.56 11.2 80.512zM295.488 176.992c-1.28-5.792-7.040-9.44-12.8-8.128s-9.408 7.040-8.096 12.832c4.128 18.464 6.24 37.44 6.24 56.704 0 16.448-1.536 32.672-4.544 48.576-1.12 5.824 2.72 11.456 8.512 12.576s11.424-2.72 12.544-8.544c3.264-17.216 4.928-34.816 4.928-52.608 0-20.864-2.304-41.408-6.784-61.408zM769.792 201.792c-0.256-5.92-5.248-10.528-11.168-10.272s-10.496 5.28-10.24 11.2c0.448 10.080 0.64 20.192 0.64 30.304 0 4.64-0.032 9.28-0.128 13.92-0.128 5.952 4.576 10.848 10.496 10.976s10.816-4.608 10.912-10.528c0.096-4.768 0.128-9.568 0.128-14.368 0-10.432-0.192-20.864-0.64-31.232zM767.296 300.608c0.544-5.92-3.776-11.168-9.664-11.712s-11.104 3.776-11.68 9.696c-2.688 28.704-7.168 57.056-13.376 84.96-1.28 5.792 2.336 11.552 8.128 12.832s11.488-2.336 12.8-8.128c6.4-28.768 11.008-58.048 13.792-87.648zM714.88 128.448c-0.96-5.856-6.432-9.856-12.288-8.896s-9.824 6.464-8.864 12.32c5.408 33.568 8.16 67.712 8.16 102.208 0 48.128-5.344 95.52-15.808 141.632-1.312 5.792 2.304 11.552 8.064 12.864s11.52-2.304 12.832-8.096c10.816-47.648 16.352-96.672 16.352-146.4 0-35.648-2.848-70.944-8.448-105.632zM656.608 88.8c-1.568-5.728-7.488-9.088-13.184-7.488s-9.056 7.52-7.456 13.248c13.12 47.488 19.872 96.832 19.872 147.072 0 45.504-5.536 90.304-16.32 133.632-1.44 5.76 2.048 11.616 7.808 13.056s11.552-2.048 12.992-7.808c11.232-45.056 16.96-91.584 16.96-138.848 0-52.192-7.008-103.456-20.64-152.8l-0.032-0.064zM598.464 63.552c-1.952-5.6-8.064-8.544-13.664-6.592s-8.544 8.096-6.56 13.696c19.36 55.488 29.376 114.144 29.376 174.208 0 35.904-3.584 71.328-10.592 105.92-1.184 5.824 2.56 11.488 8.352 12.672s11.456-2.56 12.64-8.384c7.328-36 11.040-72.864 11.040-110.208 0-62.464-10.432-123.552-30.592-181.312zM545.92 54.72c-2.24-5.504-8.48-8.16-13.952-5.92s-8.128 8.512-5.888 14.016c16.096 39.808 26.72 81.792 31.488 124.992 0.64 5.888 5.952 10.144 11.84 9.504s10.112-5.984 9.472-11.872c-4.992-45.184-16.096-89.056-32.928-130.688l-0.032-0.032zM581.888 240.544c0-5.952-4.8-10.752-10.72-10.752s-10.72 4.8-10.72 10.752c0 35.552-3.904 70.624-11.584 104.704-1.312 5.792 2.304 11.552 8.096 12.864s11.52-2.336 12.8-8.128c8.032-35.648 12.128-72.288 12.128-109.44zM496.224 54.976c-2.208-5.504-8.448-8.192-13.92-5.984s-8.16 8.48-5.952 13.984c0.032 0.064 0.032 0.064 0.16 0.384s0.288 0.704 0.448 1.12c0.48 1.216 1.024 2.56 1.568 4 1.632 4.16 3.264 8.384 4.8 12.384 0.192 0.512 0.384 0.992 0.544 1.472 1.984 5.248 3.584 9.6 4.64 12.8 1.888 5.632 7.968 8.64 13.6 6.752s8.608-8 6.72-13.632c-1.184-3.488-2.848-8.064-4.896-13.536-0.192-0.512-0.384-0.992-0.576-1.504-1.568-4.096-3.232-8.384-4.896-12.608-0.576-1.472-1.12-2.848-1.6-4.064-0.16-0.416-0.32-0.8-0.448-1.152s-0.128-0.32-0.16-0.416h-0.032zM522.464 136.8c-1.312-5.792-7.040-9.408-12.832-8.096s-9.376 7.072-8.064 12.864c7.776 34.304 11.744 69.6 11.744 105.44 0 29.888-2.752 59.424-8.192 88.352-1.088 5.824 2.72 11.456 8.544 12.576s11.424-2.72 12.512-8.576c5.696-30.24 8.576-61.12 8.576-92.352 0-37.44-4.128-74.336-12.288-110.208zM448.064 64.864c-2.496-5.376-8.864-7.744-14.24-5.216s-7.712 8.896-5.216 14.272c25.312 54.752 38.592 114.592 38.592 176.32 0 22.72-1.792 45.216-5.344 67.328-0.928 5.856 3.040 11.392 8.864 12.32s11.328-3.040 12.288-8.896c3.744-23.264 5.632-46.88 5.632-70.752 0-64.864-13.952-127.776-40.576-185.376zM403.904 80.8c-2.688-5.28-9.152-7.392-14.432-4.672s-7.36 9.184-4.672 14.464c23.456 46.016 36.32 98.56 36.32 151.040 0 18.016-1.536 35.84-4.512 53.344-0.992 5.856 2.912 11.424 8.736 12.416s11.36-2.912 12.384-8.768c3.2-18.688 4.832-37.76 4.832-56.992 0-55.904-13.664-111.808-38.656-160.832zM394.048 213.024c-0.544-5.92-5.76-10.272-11.648-9.728s-10.24 5.76-9.696 11.68c0.864 9.536 1.312 19.136 1.312 28.8 0 17.728-1.472 35.232-4.384 52.448-0.992 5.856 2.944 11.392 8.768 12.384s11.36-2.944 12.352-8.8c3.104-18.4 4.672-37.12 4.672-56.032 0-10.304-0.48-20.576-1.408-30.752h0.032zM365.024 104.224c-2.496-5.408-8.832-7.744-14.208-5.248s-7.712 8.864-5.248 14.272c7.648 16.608 13.792 33.888 18.432 51.648 1.504 5.76 7.36 9.184 13.056 7.68s9.152-7.36 7.68-13.12c-4.928-19.008-11.52-37.472-19.712-55.232zM328.736 135.84c-2.24-5.504-8.512-8.128-13.984-5.888s-8.096 8.544-5.856 14.016c12.512 30.72 19.040 63.712 19.040 97.664 0 17.632-1.76 35.040-5.216 52-1.184 5.824 2.56 11.488 8.352 12.704s11.456-2.56 12.64-8.384c3.744-18.4 5.664-37.248 5.664-56.32 0-36.736-7.072-72.512-20.64-105.792zM482.080 538.496l-63.264 63.264-21.088-21.44 84.352-84.352 181.824 181.824-21.44 21.44-160.384-160.736z" />
<glyph unicode="&#xe91e;" glyph-name="home" d="M263.648 442.912c12.48 0 22.72-9.504 23.904-21.696l0.096-2.304v-266.912h127.296v179.648c0 12.48 9.504 22.72 21.696 23.904l2.304 0.096h146.080c12.48 0 22.72-9.504 23.904-21.696l0.096-2.304v-179.648h127.296v252.352c0 12.48 9.504 22.72 21.696 23.904l2.304 0.096c12.48 0 22.72-9.504 23.904-21.696l0.096-2.304v-276.352c0-12.48-9.504-22.72-21.696-23.904l-2.304-0.096h-175.296c-12.48 0-22.72 9.504-23.904 21.696l-0.096 2.304v179.648h-98.112v-179.648c0-12.48-9.504-22.72-21.696-23.904l-2.304-0.096h-175.296c-12.48 0-22.72 9.504-23.904 21.696l-0.096 2.304v290.912c0 13.248 10.752 24 24 24h0.032zM527.104 786.656l1.824-1.632 336-334.56c9.408-9.344 9.44-24.544 0.064-33.952-8.768-8.8-22.656-9.376-32.128-1.728l-1.824 1.632-319.072 317.696-319.072-317.696c-8.8-8.768-22.72-9.28-32.128-1.568l-1.824 1.664c-8.768 8.8-9.28 22.72-1.568 32.128l1.664 1.824 336 334.56c8.192 8.16 20.8 9.184 30.112 3.072l1.952-1.44zM731.136 762.912c12.48 0 22.72-9.504 23.904-21.696l0.096-2.304v-101.824c0-13.248-10.752-24-24-24-12.48 0-22.72 9.504-23.904 21.696l-0.096 2.304v77.824h-78.24c-12.48 0-22.72 9.504-23.904 21.696l-0.096 2.304c0 12.48 9.504 22.72 21.696 23.904l2.304 0.096h102.24z" />
<glyph unicode="&#xe91f;" glyph-name="hospital" d="M640 864c16.864 0 30.688-13.056 31.904-29.6l0.096-2.4v-160h112c17.664 0 32-14.336 32-32v-560c0-17.664-14.336-32-32-32h-544c-17.664 0-32 14.336-32 32v560c0 17.664 14.336 32 32 32h128v160c0 16.864 13.056 30.688 29.6 31.904l2.4 0.096h240zM368 640h-128v-560h176v96c0 16.864 13.056 30.688 29.6 31.904l2.4 0.096h128c16.864 0 30.688-13.056 31.904-29.6l0.096-2.4v-96h176v560h-112v-48c0-16.864-13.056-30.688-29.6-31.904l-2.4-0.096h-240c-16.864 0-30.688 13.056-31.904 29.6l-0.096 2.4v48zM449.184 176.032l-1.184-0.032v-96h128l0.032 94.816-0.032 1.184-126.816 0.032zM360 276.576c3.744 0 6.976-1.408 9.728-4.256s4.096-6.176 4.096-10.048v-28.576c0-3.872-1.376-7.232-4.096-10.048s-5.984-4.256-9.728-4.256h-27.648c-3.744 0-6.976 1.408-9.728 4.256s-4.096 6.176-4.096 10.048v28.576c0 3.872 1.376 7.232 4.096 10.048s5.984 4.256 9.728 4.256h27.648zM691.648 276.576c3.744 0 6.976-1.408 9.728-4.256s4.096-6.176 4.096-10.048v-28.576c0-3.872-1.376-7.232-4.096-10.048s-5.984-4.256-9.728-4.256h-27.648c-3.744 0-6.976 1.408-9.728 4.256s-4.096 6.176-4.096 10.048v28.576c0 3.872 1.376 7.232 4.096 10.048s5.984 4.256 9.728 4.256h27.648zM360 390.848c3.744 0 6.976-1.408 9.728-4.256s4.096-6.176 4.096-10.048v-28.576c0-3.872-1.376-7.232-4.096-10.048s-5.984-4.256-9.728-4.256h-27.648c-3.744 0-6.976 1.408-9.728 4.256s-4.096 6.176-4.096 10.048v28.576c0 3.872 1.376 7.232 4.096 10.048s5.984 4.256 9.728 4.256h27.648zM470.56 390.848c3.744 0 6.976-1.408 9.728-4.256s4.096-6.176 4.096-10.048v-28.576c0-3.872-1.376-7.232-4.096-10.048s-5.984-4.256-9.728-4.256h-27.648c-3.744 0-6.976 1.408-9.728 4.256s-4.096 6.176-4.096 10.048v28.576c0 3.872 1.376 7.232 4.096 10.048s5.984 4.256 9.728 4.256h27.648zM581.088 390.848c3.744 0 6.976-1.408 9.728-4.256s4.096-6.176 4.096-10.048v-28.576c0-3.872-1.376-7.232-4.096-10.048s-5.984-4.256-9.728-4.256h-27.648c-3.744 0-6.976 1.408-9.728 4.256s-4.096 6.176-4.096 10.048v28.576c0 3.872 1.376 7.232 4.096 10.048s5.984 4.256 9.728 4.256h27.648zM691.648 390.848c3.744 0 6.976-1.408 9.728-4.256s4.096-6.176 4.096-10.048v-28.576c0-3.872-1.376-7.232-4.096-10.048s-5.984-4.256-9.728-4.256h-27.648c-3.744 0-6.976 1.408-9.728 4.256s-4.096 6.176-4.096 10.048v28.576c0 3.872 1.376 7.232 4.096 10.048s5.984 4.256 9.728 4.256h27.648zM360 505.152c3.744 0 6.976-1.408 9.728-4.256s4.096-6.176 4.096-10.048v-28.576c0-3.872-1.376-7.232-4.096-10.048s-5.984-4.256-9.728-4.256h-27.648c-3.744 0-6.976 1.408-9.728 4.256s-4.096 6.176-4.096 10.048v28.576c0 3.872 1.376 7.232 4.096 10.048s5.984 4.256 9.728 4.256h27.648zM470.56 505.152c3.744 0 6.976-1.408 9.728-4.256s4.096-6.176 4.096-10.048v-28.576c0-3.872-1.376-7.232-4.096-10.048s-5.984-4.256-9.728-4.256h-27.648c-3.744 0-6.976 1.408-9.728 4.256s-4.096 6.176-4.096 10.048v28.576c0 3.872 1.376 7.232 4.096 10.048s5.984 4.256 9.728 4.256h27.648zM581.088 505.152c3.744 0 6.976-1.408 9.728-4.256s4.096-6.176 4.096-10.048v-28.576c0-3.872-1.376-7.232-4.096-10.048s-5.984-4.256-9.728-4.256h-27.648c-3.744 0-6.976 1.408-9.728 4.256s-4.096 6.176-4.096 10.048v28.576c0 3.872 1.376 7.232 4.096 10.048s5.984 4.256 9.728 4.256h27.648zM691.648 505.152c3.744 0 6.976-1.408 9.728-4.256s4.096-6.176 4.096-10.048v-28.576c0-3.872-1.376-7.232-4.096-10.048s-5.984-4.256-9.728-4.256h-27.648c-3.744 0-6.976 1.408-9.728 4.256s-4.096 6.176-4.096 10.048v28.576c0 3.872 1.376 7.232 4.096 10.048s5.984 4.256 9.728 4.256h27.648zM640 832h-240v-240h240v240zM576 800c8.192 0 14.976-6.688 15.904-15.296l0.096-2.016v-157.376c0-9.568-7.168-17.312-16-17.312-8.192 0-14.976 6.688-15.904 15.296l-0.096 2.016v62.688h-80v-62.688c0-9.568-7.168-17.312-16-17.312-8.192 0-14.976 6.688-15.904 15.296l-0.096 2.016v157.376c0 9.568 7.168 17.312 16 17.312 8.192 0 14.976-6.688 15.904-15.296l0.096-2.016v-62.688h80v62.688c0 9.568 7.168 17.312 16 17.312z" />
<glyph unicode="&#xe920;" glyph-name="info" d="M472.576 568.192v80.768h78.848v-80.768h-78.848zM512 126.848c57.696 0 111.552 14.752 161.536 44.224 48.704 28.192 87.168 66.656 115.392 115.392 29.472 50.016 44.224 103.84 44.224 161.536s-14.752 111.552-44.224 161.536c-28.192 48.704-66.656 87.168-115.392 115.392-50.016 29.472-103.84 44.224-161.536 44.224s-111.552-14.752-161.536-44.224c-48.704-28.192-87.168-66.656-115.392-115.392-29.472-50.016-44.224-103.84-44.224-161.536s14.752-111.552 44.224-161.536c28.192-48.704 66.656-87.168 115.392-115.392 50.016-29.472 103.84-44.224 161.536-44.224zM512 848c73.088 0 140.704-18.272 202.88-54.816 60.256-34.624 107.68-82.048 142.304-142.304 36.544-62.176 54.816-129.792 54.816-202.88s-18.272-140.704-54.816-202.88c-34.624-60.256-82.048-107.68-142.304-142.304-62.176-36.544-129.792-54.816-202.88-54.816s-140.704 18.272-202.88 54.816c-60.256 35.264-107.68 83.008-142.304 143.264-36.544 62.176-54.816 129.472-54.816 201.92s18.272 139.744 54.816 201.92c35.264 60.256 83.008 108 143.264 143.264 62.176 36.544 129.472 54.816 201.92 54.816zM472.576 247.040v240.384h78.848v-240.384h-78.848z" />
<glyph unicode="&#xe921;" glyph-name="lab" d="M875.648 848h-218.176c-20.032 0-36.352-16.288-36.352-36.352s16.32-36.352 36.352-36.352v-618.176c0-60 49.088-109.088 109.088-109.088s109.088 49.088 109.088 109.088v618.176c20.064 0 36.352 16.288 36.352 36.352s-16.288 36.352-36.352 36.352zM802.912 448v-290.912c0-20-16.352-36.352-36.352-36.352s-36.352 16.352-36.352 36.352v618.176h72.736l-0.032-327.264zM512 520.736v254.56c20.064 0 36.352 16.288 36.352 36.352s-16.288 36.352-36.352 36.352h-290.912c-20.064 0-36.352-16.288-36.352-36.352s16.288-36.352 36.352-36.352v-254.56l-100.672-363.648c-18.944-44.704 0-72.736 0-72.736s17.024-36.352 72.704-36.352h363.68c55.68 0 72.704 36.352 72.704 36.352s18.944 28.032 0 72.736l-117.504 363.648zM456.096 120.736h-262.976l100.704 363.648v290.912h145.472v-290.912l19.296-36.352h-65.408c-10.080 0-18.208-8.16-18.208-18.176s8.16-18.176 18.208-18.176h76.32l21.824-72.736h-134.56c-10.048 0-18.144-8.16-18.144-18.176s8.096-18.176 18.144-18.176h145.504l21.792-72.736h-221.824c-10.048 0-18.144-8.16-18.144-18.176s8.096-18.176 18.144-18.176h232.736l21.856-72.736-100.736-0.032z" />
<glyph unicode="&#xe922;" glyph-name="language" d="M347.808 282.112v-103.36l85.6 103.36h348.736v-56.672h-322.976l-103.392-124.864c-6.848-8.256-16.608-12.736-26.784-12.736-4.128 0-8.352 0.768-12.511 2.304-14.432 5.44-24.256 19.392-24.256 34.88v100.416h-50.336c-71.616 0-129.92 61.632-129.92 137.408v299.712c0 75.776 58.304 137.408 129.92 137.408h540.223c71.616 0 129.856-61.632 129.856-137.408v-299.712c0-75.776-58.272-137.408-129.824-137.408v56.672c41.024 0 74.336 36.224 74.336 80.736v299.712c0 44.544-33.376 80.8-74.368 80.8h-540.223c-41.024 0-74.368-36.224-74.368-80.8v-299.712c0-44.512 33.376-80.736 74.368-80.736h105.919zM521.472 356.32h58.816l20.736 58.816h98.688l20-58.816h60.256l-98.72 264.064h-59.552l-100.224-264.064zM616.192 458.432l34.4 96.896h0.736l33.28-96.896h-68.416zM505.856 650.624c4.256-44.256 6.208-97.92 6.208-168.992 0-15.136-0.48-30.080-1.76-40.992-0.896-16.96-9.696-30.080-24.64-46.656l-7.872-8.768-22.688 12.352 1.856 10.496c2.24 14.016 2.752 30.016 2.752 45.28v23.328c0 51.072-6.816 125.152-8.832 146.624l-0.896 5.92 3.648 4.672c7.040 8.992 16.864 19.648 25.152 27.168l6.496 5.856 17.504-5.824 3.072-10.464zM409.952 669.856c0-13.024 5.952-28.768 17.6-46.784l6.592-10.208-8.576-8.576c-3.456-3.456-7.232-6.752-11.52-10.112l0.224-5.024c1.056-28.128 2.368-60.192 2.368-86.912 0-16.32 0-38.688-12.512-74.816-9.216-15.584-19.328-25.568-33.248-34.4-16.48-10.88-38.176-17.376-57.791-17.376-25.184 0-46.208 8.864-60.832 25.6-13.696 15.808-20.64 37.184-20.64 63.648 0 20.128 5.728 41.856 17.472 66.4l5.952 12.512 36.16-13.92-6.304-14.336c-5.856-13.408-8.736-25.024-8.736-35.392 0-11.040 2.88-19.84 8.992-27.712 13.28-17.504 41.023-17.088 62.879-4.16 9.12 4.8 15.456 9.632 18.944 14.336 0.256 3.328 0.384 6.688 0.384 9.888 0 31.968-1.856 71.456-6.176 131.968l-0.768 8.864c-0.672 7.616-1.408 15.648-1.408 23.392 0 8.704 0.992 18.848 8.224 28.096 3.328 4.96 8.896 10.88 16.416 17.184l7.072 5.92 17.568-7.488 1.664-10.592z" />
<glyph unicode="&#xe923;" glyph-name="list" d="M258.432 273.376c16.672-16.544 24.992-36.64 24.992-60.288s-8.32-43.712-24.992-60.288c-16.672-16.544-36.896-24.832-60.704-24.832s-44.064 8.288-60.704 24.832c-16.672 16.544-24.992 36.64-24.992 60.288s8.32 43.712 24.992 60.288c16.672 16.544 36.896 24.832 60.704 24.832s44.064-8.288 60.704-24.832zM258.432 500.288c16.672-16.544 24.992-36.64 24.992-60.288s-8.32-43.712-24.992-60.288c-16.672-16.544-36.896-24.832-60.704-24.832s-44.064 8.288-60.704 24.832c-16.672 16.544-24.992 36.64-24.992 60.288s8.32 43.712 24.992 60.288c16.672 16.544 36.896 24.832 60.704 24.832s44.064-8.288 60.704-24.832zM912 255.648v-85.088c0-3.84-1.408-7.168-4.256-9.984s-6.176-4.224-10.048-4.224h-542.848c-3.872 0-7.232 1.408-10.048 4.224s-4.256 6.144-4.256 9.984v85.088c0 3.84 1.408 7.168 4.256 9.984s6.176 4.224 10.048 4.224h542.848c3.872 0 7.232-1.408 10.048-4.224s4.256-6.144 4.256-9.984zM258.432 727.168c16.672-16.544 24.992-36.64 24.992-60.288s-8.32-43.712-24.992-60.288c-16.672-16.544-36.896-24.832-60.704-24.832s-44.064 8.288-60.704 24.832c-16.672 16.544-24.992 36.64-24.992 60.288s8.32 43.712 24.992 60.288c16.672 16.544 36.896 24.832 60.704 24.832s44.064-8.288 60.704-24.832zM912 482.56v-85.088c0-3.84-1.408-7.168-4.256-9.984s-6.176-4.224-10.048-4.224h-542.848c-3.872 0-7.232 1.408-10.048 4.224s-4.256 6.144-4.256 9.984v85.088c0 3.84 1.408 7.168 4.256 9.984s6.176 4.224 10.048 4.224h542.848c3.872 0 7.232-1.408 10.048-4.224s4.256-6.144 4.256-9.984zM912 709.44v-85.088c0-3.84-1.408-7.168-4.256-9.984s-6.176-4.224-10.048-4.224h-542.848c-3.872 0-7.232 1.408-10.048 4.224s-4.256 6.144-4.256 9.984v85.088c0 3.84 1.408 7.168 4.256 9.984s6.176 4.224 10.048 4.224h542.848c3.872 0 7.232-1.408 10.048-4.224s4.256-6.144 4.256-9.984z" />
<glyph unicode="&#xe924;" glyph-name="mail-sent" d="M420.864 608c-8.256 0-15.136-6.272-15.936-14.464l-28.96-299.744c-0.064-0.512-0.064-1.024-0.064-1.536 0-8.832 7.168-16 16-16h440.16c8.256 0 15.136 6.272 15.936 14.464l28.96 299.744c0.064 0.512 0.064 1.024 0.064 1.536 0 8.832-7.168 16-16 16h-440.16zM420.864 640h440.16c26.496 0 48-21.504 48-48 0-1.536-0.064-3.072-0.224-4.608l-28.96-299.744c-2.368-24.608-23.072-43.392-47.776-43.392h-440.16c-26.496 0-48 21.504-48 48 0 1.536 0.064 3.072 0.224 4.608l28.96 299.744c2.368 24.608 23.040 43.392 47.776 43.392zM380.416 531.552l-13.472 8.64 17.248 26.944 13.472-8.64c50.080-32.064 123.392-80.096 220.064-144.224 7.168-4.896 9.056-4.832 17.408 0.064 111.52 64.096 186.88 109.088 225.856 134.816l13.344 8.832 17.632-26.688-13.344-8.832c-39.712-26.208-115.488-71.456-227.456-135.808-18.304-10.688-33.344-11.168-51.328 1.088-96.384 63.936-169.568 111.904-219.456 143.84l0.032-0.032zM304 448h48c8.832 0 16-7.168 16-16s-7.168-16-16-16h-48c-8.832 0-16 7.168-16 16s7.168 16 16 16zM208 384h144c8.832 0 16-7.168 16-16s-7.168-16-16-16h-144c-8.832 0-16 7.168-16 16s7.168 16 16 16zM144 320h208c8.832 0 16-7.168 16-16s-7.168-16-16-16h-208c-8.832 0-16 7.168-16 16s7.168 16 16 16z" />
<glyph unicode="&#xe925;" glyph-name="medication-drop" d="M506.144 800c0 0-250.144-303.136-250.144-469.856 0-138.144 111.968-250.144 250.144-250.144 138.144 0 250.144 112 250.144 250.144 0 166.752-250.144 469.856-250.144 469.856zM396.992 313.728c0-39.648 18.56-118.112 31.52-150.816-84.544 41.536-106.88 122.976-106.88 179.648 0 88.16 102.368 217.44 160.576 337.632-6.368-63.136-85.216-246.432-85.216-366.464z" />
<glyph unicode="&#xe926;" glyph-name="medication-drop2" d="M720 400c0 0-112-195.040-112-257.6s48.544-110.4 112-110.4c63.456 0 112 47.84 112 110.4s-112 257.6-112 257.6zM728 64c-39.616 0-72 33.376-72 74.208 0 25.984 32.384 103.872 72 181.792 39.616-77.92 72-155.84 72-181.792 0-40.8-32.384-74.208-72-74.208zM704 173.568c-4 3.232-8 3.232-16 0-8-6.496-16-19.456-16-32.416 0-6.496 4-22.688 16-29.152h4c4 0 8 0 8 3.232 4 3.232 0 9.728-4 9.728 0 0-4 6.496-4 16.192s4 16.192 8 19.456c4 3.232 4 9.728 4 12.96zM372.288 395.904c-7.808 7.52-19.552 3.744-27.36-3.744-42.976-52.608-27.36-142.816 23.456-180.384 3.904-3.744 7.808-3.744 7.808-3.744 7.808 0 15.616 3.744 19.552 7.52 7.808 7.52 3.904 18.784-3.904 26.304-35.168 22.56-42.976 90.208-15.616 127.776 3.904 11.264 3.904 22.56-3.904 26.304l-0.032-0.032zM748.384 482.912c-90.656 181.824-250.24 349.088-250.24 349.088s-290.144-294.56-290.144-512.736c0-178.176 130.56-287.264 290.144-287.264h36.256c21.76 0 36.256 14.56 36.256 36.352s-14.496 36.352-36.256 36.352h-36.256c-108.8 0-217.6 65.44-217.6 214.56 0 123.648 130.56 301.824 217.6 403.648 58.016-65.44 188.576-280 188.576-280 7.264-7.264 14.496-14.56 29.024-14.56 21.76 0 36.256 14.56 36.256 36.352 0 7.264-3.616 18.208-3.616 18.208z" />
<glyph unicode="&#xe927;" glyph-name="locker" d="M810.176 520.736h-72.736v109.088c0 120.32-97.856 218.176-218.176 218.176s-218.176-97.856-218.176-218.176v-109.088h-72.736c-19.488 0-35.264-15.808-35.264-35.296l-1.088-402.112c0-19.488 15.808-35.296 35.264-35.296h582.912c19.488 0 36.352 16.864 36.352 36.352v400c0 19.488-16.864 36.352-36.352 36.352zM373.824 629.824c0 80.224 65.248 145.44 145.44 145.44s145.44-65.248 145.44-145.44v-109.088h-290.912v109.088h0.032zM264.736 448h509.088v-327.264h-509.088v327.264z" />
<glyph unicode="&#xe928;" glyph-name="medication-ointment" d="M567.040 837.312c-7.488 7.52-18.080 11.552-28.576 10.56-10.624-0.832-20.384-6.336-26.592-14.944l-280.608-388.16c-4.48-6.176-6.912-13.664-6.912-21.28 0-3.84 0.384-24.96 7.136-48.96 2.4-8.544 5.6-17.44 9.856-26.048 2.528-5.088-16.448-18.048-22.848-24.416l-25.728-25.728c-14.176-14.208-14.176-37.216 0-51.424 14.208-14.272 37.28-14.272 51.424 0l25.728 25.728c7.872 7.808 18.304 20.64 19.488 19.68 22.752-18.88 68-28.896 93.792-33.28 2.080-0.352 4.096-0.544 6.112-0.544 6.912 0 13.632 1.952 19.52 5.664l409.184 259.52c9.312 5.952 15.424 15.776 16.704 26.72 1.216 10.944-2.656 21.888-10.464 29.76l-257.216 257.152zM382.048 333.28c-20.448 4.448-40.416 10.656-45.344 14.144-13.12 12.832-15.456 15.232-17.856 17.76l-6.656 6.816c-7.936 7.936-12.576 26.144-14.304 40.704l193.44 267.648 169.984-169.984-279.264-177.088zM692.768 530.336l-179.84 179.872 32.832 45.472 194.976-194.944-47.968-30.4zM330.944 147.648c41.728 24.384 88.96 51.968 155.296 44.352 117.952-13.632 230.912-52.832 235.328-56.576 15.328-12.992 17.216-35.936 4.224-51.296-12.992-15.264-58.816-1.856-71.232 1.376-33.984 8.896-106.176 26.048-176.736 34.176-42.112 4.864-73.952-13.088-110.144-34.88-40.448-24.256-42.016-37.056-159.456-36.8-19.968 2.304-34.24 20.32-31.968 40.288 2.368 19.968 20.384 34.272 40.288 31.968 42.208-4.864 77.888 6.080 114.4 27.392z" />
<glyph unicode="&#xe929;" glyph-name="medication-pill" d="M523.328 751.136l145.92-145.92c0.096-0.096 0.16-0.16 0.256-0.256l145.632-145.664c86.496-86.496 86.496-227.968 0.032-314.432s-227.968-86.496-314.464 0l-291.808 291.808c-85.184 85.152-86.496 223.616-3.936 310.432l3.936 4.032c86.496 86.464 227.968 86.464 314.432 0zM657.888 571.264l-269.184-269.184 134.624-134.592c73.984-74.016 195.2-74.016 269.184 0s73.984 195.2-0.032 269.184l-134.592 134.592zM235.296 732.224l-3.808-3.68c-74.016-74.016-74.016-195.2 0-269.184l134.592-134.592 269.184 269.184-134.592 134.592c-72.736 72.736-191.104 73.952-265.376 3.68zM276.224 683.84c55.808 55.84 146.336 55.84 202.208 0l67.328-67.36 1.344-1.504c4.864-6.272 4.416-15.36-1.344-21.12-6.24-6.24-16.384-6.24-22.624 0l-67.296 67.36-3.008 2.88c-43.552 40.416-111.648 39.456-153.952-2.88-6.24-6.24-16.384-6.24-22.624 0s-6.24 16.384 0 22.624h-0.032z" />
<glyph unicode="&#xe92a;" glyph-name="medication-pill2" d="M910.496 560c-15.264 136.096-184.608 240-398.496 240s-383.2-103.936-398.496-240h-1.504l1.504-240c15.296-136.096 184.608-240 398.496-240s383.2 103.904 398.496 240l1.504-40v280h-1.504zM512 720c39.648 0 77.728-4.48 113.12-12.288l-308.768-308.8c-75.040 33.28-124.352 84.576-124.352 141.088 0 97.568 146.56 180 320 180zM832 320c-17.92-93.472-158.24-160-320-160s-300.16 66.528-318.048 160c-1.28 6.752-1.952 62.688-1.952 62.688 72.416-62.688 187.52-102.688 320-102.688 132.448 0 247.552 40 320 102.688 0 0 1.28-55.904 0-62.688zM512 360c-38.432 0-75.36 4.256-109.856 11.616l308.288 308.288c73.504-33.28 121.568-84.064 121.568-139.872 0-97.568-146.56-180.032-320-180.032z" />
<glyph unicode="&#xe92b;" glyph-name="menu-bar" d="M912 688v-80h-800v80h800zM912 480v-80h-800v80h800zM912 272v-80h-800v80h800z" />
<glyph unicode="&#xe92c;" glyph-name="menu-dots" d="M512 848c44.192 0 80-35.808 80-80s-35.808-80-80-80c-44.192 0-80 35.808-80 80s35.808 80 80 80zM512 528c44.192 0 80-35.808 80-80s-35.808-80-80-80c-44.192 0-80 35.808-80 80s35.808 80 80 80zM512 208c44.192 0 80-35.808 80-80s-35.808-80-80-80c-44.192 0-80 35.808-80 80s35.808 80 80 80z" />
<glyph unicode="&#xe92d;" glyph-name="message" d="M820.576 696c37.12 0 67.424-29.28 67.424-65.728v-364.576c0-36.416-30.336-65.728-67.424-65.728h-617.152c-37.12 0-67.424 29.312-67.424 65.728v364.576c0 36.416 30.304 65.728 67.424 65.728h617.152zM820.576 664h-13.984l-283.296-280.896c-5.76-5.696-14.784-6.144-21.024-1.312l-1.504 1.312-283.328 280.896h-13.984c-18.816 0-34.048-13.92-35.328-31.328l-0.096-2.4v-364.576c0-18.496 15.744-33.728 35.424-33.728h617.152c19.68 0 35.424 15.232 35.424 33.728v364.576c0 18.496-15.776 33.728-35.456 33.728zM761.088 664h-498.208l249.088-246.976 249.12 246.976z" />
<glyph unicode="&#xe92e;" glyph-name="notification" d="M471.235 825.721c0 23.009 18.112 41.52 40.627 41.52v0.173c22.515 0 40.627-18.511 40.627-41.521v-16.781c137.798-20.068 221.36-141.342 221.36-287.701v-25.085c0-65.222 29.693-134.925 61.859-191.322l33.699-59.187c0.701-1.235 1.453-2.528 2.227-3.866 5.418-9.331 12.115-20.867 12.115-31.005 0-36.157-21.302-47.574-56.682-47.574h-630.412c-35.38 0-61.1 13.418-61.1 49.574 0 9.238 5.427 18.253 10.459 26.611 1.283 2.131 2.54 4.221 3.675 6.259l36.865 62.464c32.164 56.397 63.868 122.65 63.868 187.869v25.088c0 146.358 83.013 267.633 220.812 287.701v16.781zM398.755 130.48c10.634-55.696 65.494-80.538 113.107-80.538 47.562 0 102.352 25.363 113.072 80.538h-226.179zM226.62 230.595h570.318l-21.84 38.234c-39.274 69.027-60.093 147.395-60.093 227.322v25.088c0 114.698-90.906 228.485-203.142 228.485-112.234 0-203.14-113.788-203.14-228.485v-25.088c0-79.754-20.822-158.294-60.265-227.322l-21.838-38.234z" />
<glyph unicode="&#xe92f;" glyph-name="phone" d="M224.256 789.632l-43.040-43.040c-42.72-42.72-49.408-109.408-16.096-159.84 126.272-190.944 294.72-359.36 485.632-485.632 50.368-33.312 117.216-26.624 159.84 16.032l43.072 43.104c35.136 35.136 35.136 92.16 0 127.296l-78.496 78.496-2.88 2.784c-35.264 32.384-90.176 31.456-124.416-2.784l-15.84-15.84-1.6 1.312c-72.064 60.32-142.080 129.696-203.424 201.408l-12.736 15.104 15.872 15.808c35.136 35.2 35.136 92.128 0.032 127.296l-78.528 78.528c-35.136 35.136-92.16 35.136-127.296 0l-0.096-0.032zM328.928 767.008l78.528-78.528c22.624-22.656 22.624-59.36 0-82.016l-26.144-26.080c-5.824-5.824-6.304-15.104-1.088-21.472 71.168-86.88 155.712-171.456 242.656-242.72 6.368-5.216 15.648-4.768 21.472 1.056l26.144 26.176c22.656 22.688 59.424 22.688 82.016 0l78.496-78.528c22.656-22.656 22.656-59.392 0-82.048l-43.072-43.104c-31.84-31.872-81.856-36.864-119.552-11.936-187.328 123.904-352.672 289.248-476.576 476.608-24.96 37.76-19.968 87.616 12.032 119.584l43.040 43.040c22.656 22.656 59.392 22.624 82.048-0.032z" />
<glyph unicode="&#xe930;" glyph-name="photo" d="M427.008 471.008c23.616 23.424 51.936 35.136 84.992 35.136s61.312-11.648 84.8-34.944c23.456-23.296 35.2-51.328 35.2-84.128s-11.744-60.832-35.2-84.128c-23.456-23.296-51.744-34.944-84.8-34.944s-61.312 11.648-84.8 34.944c-23.456 23.296-35.2 51.328-35.2 84.128s11.68 60.768 35.008 83.936zM805.344 678.144c29.44 0 54.592-10.336 75.424-31.008s31.264-45.632 31.264-74.848v-370.464c0-29.216-10.432-54.176-31.264-74.848s-45.984-31.008-75.424-31.008h-586.656c-29.44 0-54.592 10.336-75.424 31.008s-31.264 45.632-31.264 74.848v370.464c0 29.216 10.432 54.176 31.264 74.848s45.984 31.008 75.424 31.008h93.344l21.248 56.224c5.28 13.504 14.944 25.152 28.96 34.944s28.416 14.688 43.136 14.688h213.344c14.72 0 29.088-4.896 43.136-14.688s23.68-21.44 28.96-34.944l21.248-56.224h93.28zM379.904 256c36.672-36.096 80.704-54.176 132.096-54.176s95.36 18.112 131.872 54.368c36.544 36.256 54.784 79.872 54.784 130.848s-18.272 94.624-54.784 130.848c-36.544 36.256-80.48 54.368-131.872 54.368s-95.36-18.112-131.872-54.368c-36.544-36.256-54.784-79.872-54.784-130.848s18.208-94.688 54.592-131.072l-0.032 0.032z" />
<glyph unicode="&#xe931;" glyph-name="plus" d="M923.232 397.568h-360.8v-360.8h-91.744v360.8h-360.8v91.744h360.8v360.8h91.744v-360.8h360.8v-91.744z" />
<glyph unicode="&#xe932;" glyph-name="preferences" d="M903.744 532.992c-3.040 11.808-13.024 20.608-25.12 22.208l-65.6 8.608c-1.408 3.776-2.4 6.336-2.56 6.656l-1.088 2.656c0 0-1.024 2.336-2.656 5.888l40.288 52.448c7.456 9.696 8.288 22.944 2.080 33.504-0.704 1.12-17.28 28.96-54.24 65.888-36.96 37.024-64.736 53.536-65.888 54.24-10.56 6.176-23.808 5.408-33.536-2.048l-52.48-40.352c-3.488 1.632-5.792 2.688-5.792 2.688-0.288 0.16-0.608 0.256-0.96 0.416l-2.432 0.992c0 0-2.368 0.864-6.016 2.208l-8.576 65.6c-1.6 12.16-10.4 22.144-22.24 25.152-1.312 0.32-32.64 8.256-84.96 8.256s-83.648-7.936-84.992-8.256c-11.808-3.008-20.64-13.024-22.208-25.152l-8.576-65.6c-3.776-1.376-6.304-2.336-6.56-2.464l-2.016-0.768c-0.288-0.096-0.544-0.256-0.8-0.352 0 0-2.336-1.056-5.856-2.688l-52.448 40.352c-9.696 7.456-22.976 8.224-33.536 2.048-1.152-0.736-28.896-17.248-65.92-54.24-36.96-36.96-53.536-64.768-54.208-65.888-6.208-10.56-5.408-23.776 2.080-33.536l40.288-52.384c-1.632-3.52-2.656-5.888-2.656-5.888l0.16-0.032c-0.544-1.056-1.056-2.112-1.504-3.232 0 0-0.896-2.432-2.304-6.048l-65.568-8.608c-12.16-1.6-22.112-10.4-25.216-22.208-0.288-1.312-8.224-32.736-8.224-84.992s7.936-83.68 8.224-84.992c3.104-11.808 13.056-20.608 25.216-22.176l65.568-8.608c1.408-3.744 2.4-6.304 2.464-6.496l0.832-2.048c0.096-0.288 0.224-0.576 0.32-0.8 0 0 1.024-2.336 2.656-5.888l-40.288-52.384c-7.488-9.696-8.288-22.976-2.080-33.536 0.704-1.12 17.28-28.96 54.208-65.856 36.992-37.056 64.8-53.6 65.952-54.24 10.496-6.208 23.776-5.44 33.504 2.048l52.448 40.288c3.52-1.6 5.856-2.656 5.856-2.656 0.256-0.096 0.512-0.224 0.8-0.288l2.496-1.088c0 0 2.368-0.864 6.048-2.208l8.576-65.6c1.6-12.096 10.4-22.112 22.24-25.12 1.312-0.352 32.64-8.288 84.96-8.288s83.648 7.936 84.96 8.288c11.84 3.008 20.64 13.024 22.24 25.12l8.576 65.6c3.776 1.408 6.368 2.368 6.656 2.464l2.72 1.12c0 0 2.304 1.056 5.792 2.656l52.48-40.288c9.696-7.488 23.008-8.256 33.536-2.048 1.152 0.64 28.896 17.248 65.888 54.24 36.992 36.896 53.568 64.736 54.24 65.856 6.208 10.56 5.408 23.808-2.080 33.536l-40.288 52.384c1.6 3.552 2.656 5.888 2.656 5.888 0.096 0.256 0.224 0.512 0.32 0.8l1.024 2.496c0 0 0.896 2.4 2.304 6.048l65.6 8.608c12.096 1.568 22.080 10.368 25.12 22.208 0.32 1.28 8.256 32.704 8.256 84.96s-7.936 83.68-8.256 84.992l0.096-0.064zM848.992 397.376l-61.888-8.064c-11.296-1.44-20.8-9.248-24.512-20.064-3.52-10.368-7.552-20.864-7.552-20.864l-0.64-1.568c-0.864-2.048-5.056-11.36-9.44-20.288-5.056-10.208-3.84-22.464 3.136-31.488l38.048-49.504c-7.392-9.568-18.432-22.752-33.632-37.92-15.168-15.2-28.384-26.336-37.92-33.632l-49.504 38.048c-9.056 6.944-21.28 8.16-31.52 3.136-9.792-4.832-19.968-9.344-19.968-9.344h0.032l-1.344-0.608c0 0-10.784-4.16-21.44-7.776-10.784-3.648-18.592-13.152-20.064-24.448l-8.064-61.92c-11.968-1.568-29.12-3.040-50.624-3.040s-38.656 1.504-50.624 3.040l-8.064 61.92c-1.504 11.264-9.28 20.8-20.064 24.448-10.4 3.552-20.864 7.552-20.864 7.552l-1.6 0.64c-2.016 0.896-11.264 5.088-20.224 9.536-10.208 4.992-22.464 3.808-31.552-3.136l-49.504-38.048c-9.568 7.296-22.752 18.432-37.92 33.6-15.2 15.2-26.304 28.384-33.632 37.952l38.048 49.504c6.976 9.024 8.192 21.312 3.136 31.52-4.448 8.992-8.64 18.368-9.504 20.288l-0.448 0.992c-0.064 0.192-4.192 10.88-7.744 21.376-3.68 10.848-13.152 18.656-24.512 20.096l-61.888 8.064c-1.568 12-3.040 29.12-3.040 50.592 0 21.536 1.504 38.656 3.040 50.656l61.888 8.064c11.36 1.504 20.832 9.28 24.512 20.16 3.552 10.464 7.712 21.12 7.744 21.344 0.096 0.224 0.192 0.448 0.256 0.608 0 0 4.672 10.624 9.664 20.704 5.056 10.208 3.84 22.432-3.136 31.488l-38.048 49.504c7.36 9.568 18.432 22.752 33.6 37.952 15.2 15.2 28.384 26.24 37.952 33.632l49.504-38.080c9.088-6.912 21.312-8.096 31.52-3.104 9.056 4.448 18.432 8.704 20.32 9.504l0.96 0.448c0.192 0.064 10.88 4.192 21.44 7.776 10.816 3.648 18.592 13.152 20.064 24.48l8.064 61.92c11.968 1.536 29.12 3.040 50.624 3.040s38.656-1.536 50.624-3.040l8.064-61.92c1.504-11.296 9.28-20.832 20.064-24.48 10.432-3.552 20.992-7.648 20.992-7.648l1.536-0.608c2.112-0.896 11.36-5.088 20.224-9.504 10.24-4.992 22.464-3.776 31.52 3.168l49.504 38.048c9.568-7.392 22.752-18.432 37.92-33.632 15.2-15.2 26.304-28.384 33.632-37.952l-38.048-49.504c-6.976-9.056-8.192-21.28-3.136-31.488 4.8-9.792 9.344-20 9.344-20l0.544-1.28c0.064-0.16 4.224-10.912 7.808-21.44 3.68-10.816 13.152-18.592 24.48-20.064l61.888-8.064c1.568-12 3.040-29.12 3.040-50.624s-1.504-38.624-3.040-50.624l-0.032-0.032zM512 639.008c-105.312 0-190.976-85.664-190.976-191.008 0-105.312 85.664-191.008 190.976-191.008s190.976 85.696 190.976 191.008c0 105.344-85.664 191.008-190.976 191.008zM512 316.992c-72.256 0-131.040 58.784-131.040 131.008 0 72.256 58.816 131.040 131.040 131.040s131.008-58.816 131.008-131.040c0-72.224-58.752-131.008-131.008-131.008z" />
<glyph unicode="&#xe933;" glyph-name="profile" d="M512 960c282.784 0 512-229.216 512-512s-229.216-512-512-512c-282.784 0-512 229.216-512 512s229.216 512 512 512zM427.072 680.768l-1.024-3.36c-2.752-11.040-13.728-17.984-24.896-15.744-19.328 3.872-27.616 1.024-31.68-6.144-4.672-8.224-5.792-23.68-2.976-44.288 1.184-8.736 3.008-17.984 5.408-28.096l2.976-11.776 7.040-25.568c1.6-6.080 2.112-8.992 2.112-12.608 0-11.776-9.536-21.344-21.344-21.344-6.784 0-6.784-42.688 0-42.688 11.776 0 21.344-9.536 21.344-21.344 0-41.696 10.24-70.752 26.88-90.144 8.32-9.696 16.224-15.008 21.056-17.088l1.504-0.576c7.904-2.624 13.504-9.632 14.432-17.76l0.128-2.464v-106.688c0-8.864-5.472-16.8-13.792-19.936l-32.64-12.128-70.72-25.792c-65.632-24.256-104.576-40.32-132.896-56.064 83.168-74.944 193.248-120.512 314.016-120.512 120.96 0 231.232 45.76 314.464 120.896-14.336 7.84-31.744 16-52.576 24.736l-12.8 5.248c-41.408 16.448-174.624 64.864-171.232 63.584-7.488 2.816-12.704 9.536-13.664 17.344l-0.16 2.624v106.688c0 8.352 4.864 15.84 12.288 19.328l2.304 0.928c4.576 1.536 13.312 6.848 22.56 17.664 16.608 19.392 26.88 48.448 26.88 90.144 0 11.776 9.536 21.344 21.344 21.344 6.784 0 6.784 42.688 0 42.688-11.776 0-21.344 9.536-21.344 21.344 0 6.56 13.28 48.224 13.28 48.224 6.272 21.952 10.208 41.6 11.328 59.808 0.832 13.6 0 25.728-2.624 36.16-15.648 62.656-212.768 63.776-234.912 3.36h-0.064zM512 917.344c-259.2 0-469.344-210.112-469.344-469.344 0-122.56 46.976-234.112 123.872-317.728 33.024 20.032 76.416 38.144 157.568 67.968l81.184 29.664v78.656l-1.376 0.8c-6.944 4.416-14.368 10.464-21.792 18.4l-3.712 4.128c-19.872 23.2-32.8 54.816-36.224 95.52l-0.48 6.592-1.728 1.024c-31.52 20.704-33.408 84.64-5.632 110.464l3.104 2.656-5.056 18.624c-3.744 14.656-6.528 27.904-8.288 40.672-3.968 29.056-2.24 52.8 8.16 71.104 11.52 20.32 31.744 30.208 58.432 29.216l1.088-0.064 1.792 3.008c53.888 85.376 284.864 78.368 309.696-20.992 3.744-15.040 4.896-31.456 3.808-49.12-1.152-19.040-4.736-38.624-10.368-59.776l-2.528-9.152c-1.28-4.512-3.36-11.264-5.376-17.76l-1.984-6.176 2.176-1.792c28.288-25.536 26.56-90.080-5.152-110.912l-1.76-1.024-0.448-6.592c-3.232-38.304-14.848-68.576-32.768-91.328l-3.424-4.192c-8.608-10.048-17.376-17.408-25.472-22.56l-1.376-0.8v-78.496l83.616-30.72c31.552-11.68 62.304-23.232 77.536-29.376l2.4-0.96c31.168-12.768 55.968-24.512 75.68-36.288 76.64 83.552 123.424 194.912 123.424 317.248 0 259.2-210.112 469.344-469.344 469.344l0.096 0.064z" />
<glyph unicode="&#xe934;" glyph-name="radioactive" d="M428.8 496.96l-131.104 235.072c-2.816 5.056-3.552 11.040-2.112 16.672s5.024 10.432 9.888 13.344c120.256 71.872 269.76 71.904 390.176 0.064 4.896-2.912 8.448-7.712 9.92-13.344s0.704-11.648-2.144-16.704l-131.104-235.136c-12.384 11.264-27.2 19.552-43.616 24.096-28.064 7.776-57.408 3.808-82.56-11.264-6.24-3.744-12.032-8-17.344-12.8zM559.968 440c18.912-32.64 7.648-74.496-25.088-93.344-15.84-9.12-34.304-11.552-52.032-6.816s-32.448 16.032-41.632 31.84c-9.152 15.808-11.584 34.208-6.848 51.872s16.096 32.352 31.936 41.472c10.912 6.272 23.072 9.408 35.36 9.184 5.568-0.096 11.168-0.864 16.672-2.336 17.696-4.736 32.448-16.064 41.632-31.872zM905.6 422.336c4.096-4.032 6.4-9.472 6.4-15.136-0.128-140-77.12-270.4-200.896-340.32-3.456-1.952-7.36-2.944-11.296-2.88-1.76 0.032-3.552 0.256-5.28 0.736-5.6 1.472-10.4 5.056-13.28 9.984l-134.976 228.704c6.88 2.304 13.568 5.248 20 8.864 42.592 24.064 62.912 71.552 53.824 116.32h270.016c5.856 0.096 11.392-2.272 15.488-6.272zM416.672 352.416c13.728-23.264 35.232-40.448 61.024-48.96l-135.008-228.768c-4.096-6.976-11.648-10.816-19.328-10.688-3.584 0.064-7.2 0.992-10.528 2.848-60.864 34.304-111.712 84.064-147.008 143.872s-53.92 127.776-53.856 196.512c0 11.808 9.792 21.376 21.856 21.376h269.984c-5.344-26.112-0.864-52.928 12.864-76.192z" />
<glyph unicode="&#xe935;" glyph-name="route" d="M897.312 483.456l-349.888 349.888c-19.552 19.552-51.296 19.552-70.88 0l-349.888-349.888c-19.552-19.584-19.552-51.296 0-70.88l349.888-349.888c19.552-19.584 51.296-19.584 70.88 0l349.888 349.888c19.552 19.584 19.552 51.296 0 70.88zM740.192 465.856l-131.584-121.44c-8-7.392-20.992-1.728-20.992 9.184v83.936h-149.984v-100c0-6.912-5.6-12.512-12.512-12.512h-49.984c-6.912 0-12.512 5.6-12.512 12.512v124.992c0 27.616 22.4 49.984 49.984 49.984h175.008v83.936c0 10.88 12.96 16.576 20.992 9.184l131.584-121.44c5.344-4.96 5.344-13.376 0-18.336z" />
<glyph unicode="&#xe936;" glyph-name="search" d="M373.344 960c206.176 0 373.344-167.136 373.344-373.344 0-87.712-30.24-168.352-80.896-232.064l345.728-345.76c16.672-16.672 16.672-43.68 0-60.352-15.776-15.776-40.864-16.608-57.632-2.496l-2.72 2.496-345.76 345.728c-63.712-50.624-144.352-80.896-232.064-80.896-206.176 0-373.344 167.136-373.344 373.344s167.136 373.344 373.344 373.344zM373.344 874.656c-159.072 0-288-128.928-288-288s128.928-288 288-288c159.072 0 288 128.928 288 288s-128.928 288-288 288z" />
<glyph unicode="&#xe937;" glyph-name="share" d="M734.592 324.896c-38.016 0-72.128-21.568-88.96-55.072-33.024-65.92 15.072-143.904 88.96-143.904 54.944 0 99.488 44.544 99.488 99.488 0 53.76-42.688 97.6-96 99.424l-3.488 0.064zM305.408 539.488c-54.944 0-99.488-44.544-99.488-99.488s44.544-99.488 99.488-99.488c36.704 0 69.76 20.096 87.104 51.648l1.792 3.424c6.944 13.856 10.592 28.896 10.592 44.448 0 13.824-2.912 27.264-8.416 39.776l-2.272 4.8-1.728 3.264c-17.312 31.52-50.4 51.648-87.104 51.648l0.032-0.032zM734.592 754.081c-54.944 0-99.488-44.544-99.488-99.488 0-13.792 2.88-27.201 8.384-39.809l2.176-4.672c16.224-32.288 48.576-53.504 85.024-54.944l3.904-0.064c54.944 0 99.488 44.544 99.488 99.489s-44.544 99.488-99.488 99.488zM627.808 581.632l-1.44 2.144-199.424-99.712 0.48-1.248c4.224-11.936 6.688-24.48 7.264-37.312l0.128-5.504c0-14.72-2.528-29.12-7.36-42.784l-0.48-1.28 199.424-99.744 1.44 2.144c22.944 33.568 60.608 54.944 102.304 56.384l4.48 0.064c71.456 0 129.408-57.952 129.408-129.408s-57.952-129.408-129.408-129.408c-91.072 0-151.936 90.944-121.632 173.472l-199.36 99.712c-23.552-36.032-63.84-58.592-108.192-58.592-71.456 0-129.408 57.952-129.408 129.408s57.952 129.408 129.408 129.408c44.352 0 84.64-22.56 108.192-58.592l199.392 99.712c-5.12 14.048-7.808 28.896-7.808 44.065 0 71.456 57.952 129.408 129.408 129.408s129.408-57.952 129.408-129.408c0-70.177-55.84-127.297-125.536-129.345l-3.872-0.064c-43.456 0-83.008 21.664-106.784 56.448l-0.032 0.032z" />
<glyph unicode="&#xe938;" glyph-name="trash" d="M411.648 197.984v366.656c0 4.864-1.568 8.864-4.704 11.968s-7.136 4.672-12.032 4.672h-33.44c-4.864 0-8.896-1.568-12.032-4.672s-4.704-7.104-4.704-11.968v-366.656c0-4.864 1.568-8.864 4.704-11.968s7.136-4.672 12.032-4.672h33.44c4.864 0 8.896 1.568 12.032 4.672s4.704 7.104 4.704 11.968zM545.44 197.984v366.656c0 4.864-1.568 8.864-4.704 11.968s-7.136 4.672-12.032 4.672h-33.44c-4.864 0-8.896-1.568-12.032-4.672s-4.704-7.104-4.704-11.968v-366.656c0-4.864 1.568-8.864 4.704-11.968s7.136-4.672 12.032-4.672h33.44c4.864 0 8.896 1.568 12.032 4.672s4.704 7.104 4.704 11.968zM679.264 197.984v366.656c0 4.864-1.568 8.864-4.704 11.968s-7.136 4.672-12.032 4.672h-33.44c-4.864 0-8.896-1.568-12.032-4.672s-4.704-7.104-4.704-11.968v-366.656c0-4.864 1.568-8.864 4.704-11.968s7.136-4.672 12.032-4.672h33.44c4.864 0 8.896 1.568 12.032 4.672s4.704 7.104 4.704 11.968zM394.912 714.656h234.176l-25.088 60.928c-2.432 3.136-5.408 5.024-8.896 5.728h-165.696c-3.488-0.704-6.432-2.592-8.896-5.728l-25.6-60.928zM880 697.984v-33.344c0-4.864-1.568-8.864-4.704-11.968s-7.136-4.672-12.032-4.672h-50.176v-493.76c0-28.832-8.192-53.728-24.576-74.752s-36.064-31.52-59.072-31.52h-434.912c-23.008 0-42.688 10.144-59.072 30.464s-24.576 44.864-24.576 73.696v495.84h-50.176c-4.864 0-8.896 1.568-12.032 4.672s-4.704 7.104-4.704 11.968v33.344c0 4.864 1.568 8.864 4.704 11.968s7.136 4.672 12.032 4.672h161.536l36.576 86.976c5.216 12.832 14.624 23.776 28.224 32.8s27.36 13.536 41.28 13.536h167.264c13.952 0 27.712-4.512 41.28-13.536s23.008-19.968 28.224-32.8l36.576-86.976h161.536c4.864 0 8.896-1.568 12.032-4.672s4.704-7.104 4.704-11.968l0.064 0.032z" />
<glyph unicode="&#xe939;" glyph-name="save" d="M645.344 581.344v177.056h-443.744v-177.056h443.744zM512 137.6c23.456 0 45.504 6.048 66.144 18.144s36.992 28.448 49.056 49.056c12.096 20.608 18.144 42.656 18.144 66.144s-6.048 45.504-18.144 66.144c-12.096 20.608-28.448 36.992-49.056 49.056s-42.656 18.144-66.144 18.144c-23.456 0-45.504-6.048-66.144-18.144s-36.992-28.448-49.056-49.056c-12.096-20.608-18.144-42.656-18.144-66.144s6.048-45.504 18.144-66.144c12.096-20.608 28.448-36.992 49.056-49.056s42.656-18.144 66.144-18.144zM734.944 848l177.056-177.056v-533.344c0-24.192-8.896-45.152-26.656-62.944s-38.752-26.656-62.944-26.656h-620.8c-24.896 0-46.048 8.896-63.456 26.656s-26.144 38.752-26.144 62.944v620.8c0 24.192 8.704 45.152 26.144 62.944s38.592 26.656 63.456 26.656h533.344z" />
<glyph unicode="&#xe93a;" glyph-name="filter-active" d="M848 800c12.928 0 20.256-14.368 13.408-24.736l-1.088-1.44-288.512-348.768v-225.376c0-2.816-0.736-5.568-2.144-8l-1.152-1.728-1.376-1.6-87.648-87.648c-9.632-9.632-25.824-3.52-27.232 9.504l-0.096 1.824v313.024l-288.48 348.768c-7.84 9.472-2.464 23.296 8.704 25.792l1.824 0.288 1.792 0.096h672zM648.576 568h-273.152l105.088-127.040c1.408-1.728 2.464-3.712 3.072-5.824l0.448-2.144 0.16-2.208v-280.128l55.68 55.648v224.48c0 2.24 0.48 4.416 1.344 6.432l1.024 1.952 1.28 1.792 105.056 127.040zM943.616 530.208c9.44-8.096 11.040-21.92 4.096-31.904l-1.504-1.952-192-224c-8.576-9.984-23.424-11.136-33.376-2.976l-1.792 1.632-96 96c-9.376 9.376-9.376 24.576 0 33.952 8.8 8.8 22.688 9.344 32.128 1.664l1.824-1.664 77.664-77.664 175.136 204.32c8.64 10.080 23.744 11.232 33.824 2.592zM813.984 768h-604l138.944-168h326.080l138.976 168z" />
<glyph unicode="&#xe93b;" glyph-name="medication-stick" d="M704.096 722.4l-1.92-486.912-366.4-1.28 1.6 486.88c0.704 160.224 160.096 160.096 160.096 160.096l47.68 0.16c0 0 159.616 1.216 158.944-158.944zM587.936 282.848l34.944 0.128 1.632 447.232c0.288 81.632-111.808 71.296-79.68 71.424l-44.16-0.16c0 0-79.744-0.288-80.032-80.032l-3.552-88.096-0.288-79.744-0.256-39.904-0.416-119.616-0.48-111.808 172.288 0.576zM416 112h206.4v128h-206.4v-128zM400 288h238.4c35.36 0 64-28.64 64-64v-128c0-35.36-28.64-64-64-64h-238.4c-35.36 0-64 28.64-64 64v128c0 35.36 28.64 64 64 64zM595.552 721.152v-138.528c-2.24-8.768-7.008-16.832-17.44-16.832-9.6 0-17.44 7.776-17.44 17.44v104.736c-0.096 8.672-3.040 52.352-52.352 52.352-9.6 0-17.44 7.776-17.44 17.44 0 9.632 7.84 17.44 17.44 17.44 57.536 0 80.96-27.488 87.264-54.112l-0.032 0.064z" />
<glyph unicode="&#xe93c;" glyph-name="medication-enema" d="M336 304v-208h352v208h-352zM320 384h384c35.36 0 64-28.64 64-64v-240c0-35.36-28.64-64-64-64h-384c-35.36 0-64 28.64-64 64v240c0 35.36 28.64 64 64 64zM512 848c-17.664 0-32-13.76-32-30.72v-322.56c0-16.96 14.336-30.72 32-30.72s32 13.76 32 30.72v322.56c0 16.96-14.336 30.72-32 30.72zM512 912c53.024 0 96-41.76 96-93.28v-326.528c0-51.52-42.976-60.192-96-60.192s-96 8.672-96 60.192v326.528c0 51.52 42.976 93.28 96 93.28zM416 416v-32h192v32h-192zM400 496h224c35.36 0 64-28.64 64-64v-64c0-35.36-28.64-64-64-64h-224c-35.36 0-64 28.64-64 64v64c0 35.36 28.64 64 64 64z" />
<glyph unicode="&#xe93d;" glyph-name="medication-kit" d="M192 587.072v-427.072h656v427.072h-656zM176 651.072h688c26.496 0 48-21.504 48-48v-459.072c0-26.496-21.504-48-48-48h-688c-26.496 0-48 21.504-48 48v459.072c0 26.496 21.504 48 48 48zM413.12 566.56h213.728v153.44h-213.76l0.032-153.44zM397.12 784h245.728c26.496 0 48-21.504 48-48v-185.44c0-26.496-21.504-16-48-16h-245.76c-26.496 0-48-10.496-48 16v185.44c0 26.496 21.536 48 48.032 48zM308.928 651.072h422.144v-534.976h-422.144v534.976zM550.144 411.68v94.56c0 8.832-7.168 16-16 16h-28.32c-8.832 0-16-7.168-16-16v-94.56h-94.56c-8.832 0-16-7.168-16-16v-28.32c0-8.832 7.168-16 16-16h94.56v-94.56c0-8.832 7.168-16 16-16h28.32c8.832 0 16 7.168 16 16v94.56h94.56c8.832 0 16 7.168 16 16v28.32c0 8.832-7.168 16-16 16h-94.56z" />
<glyph unicode="&#xe93e;" glyph-name="medication-ring" d="M520 125.28c56.544 0 109.312 14.464 158.304 43.36 47.744 27.648 85.44 65.344 113.088 113.088 28.896 48.992 43.36 101.76 43.36 158.304s-14.464 109.312-43.36 158.304c-27.648 47.744-65.344 85.44-113.088 113.088-48.992 28.896-101.76 43.36-158.304 43.36s-109.312-14.464-158.304-43.36c-47.744-27.648-85.44-65.344-113.088-113.088-28.896-48.992-43.36-101.76-43.36-158.304s14.464-109.312 43.36-158.304c27.648-47.744 65.344-85.44 113.088-113.088 48.992-28.896 101.76-43.36 158.304-43.36zM520 832c71.616 0 137.888-17.888 198.816-53.696 59.040-33.92 105.536-80.416 139.456-139.456 35.808-60.928 53.696-127.2 53.696-198.816s-17.888-137.888-53.696-198.816c-33.92-59.040-80.416-105.536-139.456-139.456-60.928-35.808-127.2-53.696-198.816-53.696s-137.888 17.888-198.816 53.696c-59.040 34.56-105.536 81.344-139.456 140.416-35.808 60.928-53.728 126.912-53.728 197.888s17.92 136.96 53.728 197.888c34.56 59.040 81.344 105.856 140.416 140.416 60.928 35.808 126.912 53.728 197.888 53.728l-0.032-0.096z" />
<glyph unicode="&#xe93f;" glyph-name="medication-spray" d="M224 126.4h352v219.52c0 43.296-35.808 78.4-80 78.4h-192c-44.192 0-80-35.104-80-78.4v-219.52zM304 502.72h192c88.352 0 160-70.208 160-156.8v-297.92h-512v297.92c0 86.592 71.648 156.8 160 156.8zM368 487.040h80v219.52c0 8.672-7.168 15.68-16 15.68h-48c-8.832 0-16-7.008-16-15.68v-219.52zM384 784.96h48c44.192 0 80-35.104 80-78.4v-282.24h-208v282.24c0 43.296 35.808 78.4 80 78.4zM548.864 651.040c0 17.312 14.336 31.36 32 31.36s32-14.048 32-31.36c0-17.312-14.336-31.36-32-31.36s-32 14.048-32 31.36zM639.36 698.079c0 17.312 14.336 31.36 32 31.36s32-14.048 32-31.36c0-17.312-14.336-31.36-32-31.36s-32 14.048-32 31.36zM639.36 604c0 17.312 14.336 31.36 32 31.36s32-14.048 32-31.36c0-17.312-14.336-31.36-32-31.36s-32 14.048-32 31.36zM735.36 745.12c0 17.312 14.336 31.36 32 31.36s32-14.048 32-31.36c0-17.312-14.336-31.36-32-31.36s-32 14.048-32 31.36zM735.36 651.040c0 17.312 14.336 31.36 32 31.36s32-14.048 32-31.36c0-17.312-14.336-31.36-32-31.36s-32 14.048-32 31.36zM735.36 556.96c0 17.312 14.336 31.36 32 31.36s32-14.048 32-31.36c0-17.312-14.336-31.36-32-31.36s-32 14.048-32 31.36zM831.36 604c0 17.312 14.336 31.36 32 31.36s32-14.048 32-31.36c0-17.312-14.336-31.36-32-31.36s-32 14.048-32 31.36zM831.36 698.079c0 17.312 14.336 31.36 32 31.36s32-14.048 32-31.36c0-17.312-14.336-31.36-32-31.36s-32 14.048-32 31.36zM831.36 792.16c0 17.312 14.336 31.36 32 31.36s32-14.048 32-31.36c0-17.312-14.336-31.36-32-31.36s-32 14.048-32 31.36zM831.36 509.92c0 17.312 14.336 31.36 32 31.36s32-14.048 32-31.36c0-17.312-14.336-31.36-32-31.36s-32 14.048-32 31.36zM256 339.936v-135.744c2.24-8.576 7.008-16.48 17.44-16.48 9.6 0 17.44 7.616 17.44 17.12v102.624c0.096 8.48 3.040 51.328 52.352 51.328 9.6 0 17.44 7.616 17.44 17.12 0 9.44-7.84 17.12-17.44 17.12-57.536 0-80.96-26.912-87.264-53.024l0.032-0.064z" />
<glyph unicode="&#xe940;" glyph-name="medication-patch" d="M789.184 733.184c-62.496 62.496-163.776 62.496-226.272 0l-328.096-328.096c-62.496-62.496-62.496-163.776 0-226.272s163.776-62.496 226.272 0l328.096 328.096c62.496 62.496 62.496 163.776 0 226.272zM834.432 778.432c87.488-87.488 87.488-229.312 0-316.768l-328.096-328.096c-87.488-87.488-229.312-87.488-316.768 0s-87.488 229.312 0 316.768l328.096 328.096c87.488 87.488 229.312 87.488 316.768 0zM551.584 608.736l-181.024-181.024 113.152-113.152 181.024 181.024-113.152 113.152zM585.536 642.688l113.152-113.152c18.752-18.752 18.752-49.152 0-67.872l-181.024-181.024c-18.752-18.752-49.152-18.752-67.872 0l-113.152 113.152c-18.752 18.752-18.752 49.152 0 67.872l181.024 181.024c18.752 18.752 49.152 18.752 67.872 0zM755.232 653.984c-12.512-12.512-32.768-12.512-45.248 0s-12.512 32.768 0 45.248c12.512 12.512 32.768 12.512 45.248 0s12.512-32.768 0-45.248zM664.736 653.984c-12.512-12.512-32.768-12.512-45.248 0s-12.512 32.768 0 45.248c12.512 12.512 32.768 12.512 45.248 0s12.512-32.768 0-45.248zM755.232 563.488c-12.512-12.512-32.768-12.512-45.248 0s-12.512 32.768 0 45.248c12.512 12.512 32.768 12.512 45.248 0s12.512-32.768 0-45.248zM268.768 258.016c12.512 12.512 32.768 12.512 45.248 0s12.512-32.768 0-45.248c-12.512-12.512-32.768-12.512-45.248 0s-12.512 32.768 0 45.248zM359.264 258.016c12.512 12.512 32.768 12.512 45.248 0s12.512-32.768 0-45.248c-12.512-12.512-32.768-12.512-45.248 0s-12.512 32.768 0 45.248zM268.768 348.512c12.512 12.512 32.768 12.512 45.248 0s12.512-32.768 0-45.248c-12.512-12.512-32.768-12.512-45.248 0s-12.512 32.768 0 45.248z" />
</font>
</defs>
</svg>
